<svg id="avatar" data-name="avatar" xmlns="http://www.w3.org/2000/svg" viewBox="0 0 240 346.54" fill="#b0b0b0"><defs><style>.cls-1{fill:#c0c0c0}.cls-2{fill:#3d4f53}.cls-3{fill:#6b727b}.cls-4{fill:#b8b8b8}.cls-5{fill:#a9a9a9}</style></defs><path d="M319.3 249.38l5.11 20.85-10.83 31.87-17.15 19.66-46.49-6h-.05l-46.5 6-17.14-19.66-10.83-31.87 5.11-20.85-10.8-5.07.27 74.47 15.56 17.87 6.1 11.31 16.25 31 15 9.53 26.62 7.51v.22l.38-.11.39.11V396l26.58-7.53 15-9.53 16.24-31 6.11-11.31 15.56-17.87.27-74.47zM293.12 342l-28.28 6.55-14.23-5.55h-1.39L235 348.56 206.7 342l-1.2-5.36 29.18-6.56 13.25-3 1.8-7.75.18-3.2.19 3.2 1.8 7.75 13.25 3 29.18 6.56z" transform="translate(-149.31 -89.13)"/><path d="M116.55 157.15l-5.41-5.36 44.16-12.37 11.8 12.37-18.16-2.98-32.39 8.34zM84.66 157.15l5.42-5.36-44.17-12.37-11.79 12.37 18.15-2.98 32.39 8.34z"/><path d="M324.19 245.35c0-1.24-.31-1.4-1.41-1.55-7.55-.94-23.11-3.43-30.82-3.43-20.59 0-31.91 6.85-42.13 6.85-9.27 0-22.79-7-39.14-7-12.1 0-29.71 2.64-32.86 2.64-1.72.16-2 .63-2.2 2.18s-.15 3.58-.15 5.76c0 .78.15 1.55 1.1 1.71 2.2.78 1.73 2.18 2.2 4.51.47 3.58 2.83 15.41 4.72 20.24 4.08 9.65 15.87 12.91 24.05 12.91 22.32 0 28.92-13.53 34.11-26.76 1.73-5 3.62-11.21 8.17-11.21 6.13 0 6.29 6.54 8.18 11.21 6.76 17.89 14.15 26.92 33.48 26.92 14.78 0 23.11-4.67 26.57-18.36 1.1-4.52 2-9.19 2.83-13.85.47-2.5.16-5.14 2.51-5.14.48 0 1-.31 1-1.24-.05-2.65-.05-3.89-.21-6.39zm-90.71 29.73c-7.85 11.51-18.07 12.76-26.72 12.76-19.33 0-22.95-14.78-22.95-25.37 0-18.83 8.17-20.7 26.88-20.7 12.58 0 28.61 3.9 28.61 14 0 6.39-2.83 14.48-5.82 19.31zm58.64 12.76c-12.74 0-21.38-4.36-26.88-14.63a45.31 45.31 0 0 1-4.4-17.43c0-10.11 12.58-13.69 28.14-13.69 20 0 26.72 3.89 26.72 16.18 0 19.61-3.93 29.57-23.58 29.57z" transform="translate(-149.31 -89.13)"/><path d="M338.52 139.17l-8.93-11.91-12.59-8.34-8.42-1.79L295.94 107l-12.63-1.19L257.5 102l-.06-.09h-.27l-6.81-.65v-.09l-.45.05-.44-.05v.09l-6.81.65h-.27l-.06.09c-1.9 2.63-19.35 1.52-22.8 2-24.88 3.42-47.9 16.39-59.78 39-1.78 3.39-11.43 19-10.36 22.39l4.76 15.49 6 54.21 7.45 28-.6-22.64 8.65 1.79 8.35-43.5 3.33-23.23-4-29.19 7.3 27.4 36.78 7.75 16.17 2.08 6.31.3 6.32-.3 16.17-2.08 36.78-7.75 7.3-27.4-.68 35.15V197l8.42 45.27 8.64-1.79-.59 22.64 7.44-28 6-54.21 4.77-15.49z" transform="translate(-149.31 -89.13)"/><path class="cls-1" d="M31.9 123.37l1.22-6.32L5.31 97.41l.86 7.78 25.73 18.18z"/><path class="cls-2" d="M30.55 130.35l1.35-6.98-25.73-18.18.92 8.38 23.46 16.78z"/><path class="cls-3" d="M30.55 130.35L7.09 113.57l.9 8.23 21.17 15.7 1.39-7.15z"/><path class="cls-4" d="M5.31 97.41l27.81 19.64 1.26-6.47-30.17-20.4.48 1.56.62 5.67z"/><path class="cls-1" d="M169.31 123.37l-1.22-6.32 27.81-19.64-.86 7.78-25.73 18.18z"/><path class="cls-2" d="M170.67 130.35l-1.36-6.98 25.73-18.18-.92 8.38-23.45 16.78z"/><path class="cls-3" d="M170.67 130.35l23.45-16.78-.9 8.23-21.17 15.7-1.38-7.15z"/><path class="cls-4" d="M195.9 97.41l-27.81 19.64-1.25-6.47L197 90.18l-.48 1.56-.62 5.67z"/><path d="M248.42 93c13-3 25-2.62 33.68-2.23 4.33.2 7.83.38 10.24.36 1.2 0 2.13 0 2.76-.09s.95-.11.95-.11-.33.06-.93.24-1.5.45-2.64.84c-2.28.77-5.57 2-9.64 3.52s-8.91 3.22-14.27 4.87-11.25 3.22-17.39 4.61-12 2.55-17.17 3.73a65.38 65.38 0 0 0-13.43 4.17 19.92 19.92 0 0 0-4.51 2.9 12.08 12.08 0 0 0-2.59 3.22 9.17 9.17 0 0 0-.94 2.53 9 9 0 0 0-.13.94v-.95a17.18 17.18 0 0 1 .23-2.81 16.34 16.34 0 0 1 1.43-4.4 23.53 23.53 0 0 1 3.55-5.21 45.59 45.59 0 0 1 12.9-9.66 75.77 75.77 0 0 1 17.9-6.47z" transform="translate(-149.31 -89.13)"/><path d="M268.82 99.58a98.52 98.52 0 0 1 17.56-3.36c5.45-.56 10.39-.68 14.53-.73s7.5 0 9.79-.12c1.15-.05 2-.11 2.64-.16s.91-.12.91-.12-.31.06-.89.22-1.43.42-2.53.78c-2.18.72-5.32 1.89-9.19 3.33s-8.45 3.14-13.53 4.84c-2.53.87-5.19 1.72-7.94 2.58s-5.6 1.7-8.49 2.55l-8.47 2.42c-2.72.78-5.36 1.5-7.85 2.27s-4.87 1.48-7.07 2.25-4.24 1.55-6.1 2.32c-.92.39-1.78.8-2.61 1.18l-2.29 1.17a39.08 39.08 0 0 0-3.5 2.19 19.49 19.49 0 0 0-2.06 1.64c-.45.4-.67.63-.67.63s.21-.23.59-.7.88-1.2 1.62-2.09 1.63-2 2.73-3.28c.58-.61 1.19-1.27 1.84-2s1.39-1.39 2.17-2.11a61.86 61.86 0 0 1 5.38-4.44 65.5 65.5 0 0 1 6.72-4.34 74.18 74.18 0 0 1 7.89-3.86 83.21 83.21 0 0 1 8.82-3.06z" transform="translate(-149.31 -89.13)"/><path d="M269 107.89a161.53 161.53 0 0 1 25.78 1.18c7.74.87 14.6 1.81 20.36 2a46.19 46.19 0 0 0 7.74-.28 21.29 21.29 0 0 0 5.66-1.5 13.12 13.12 0 0 0 3.2-2c.63-.59.94-.93.94-.93s-.31.34-.85 1a20 20 0 0 1-2.84 2.63 26.71 26.71 0 0 1-5.41 3.12 47.75 47.75 0 0 1-7.89 2.68 124.16 124.16 0 0 1-21.03 3.21c-7.87.61-16.38.79-25 1.2s-16.54 1.16-23 3.34a27.71 27.71 0 0 0-8.39 4.39 23.58 23.58 0 0 0-5.63 6.45 30.91 30.91 0 0 0-3 7c-.2.54-.3 1.09-.44 1.6s-.28 1-.36 1.52c-.17 1-.38 1.88-.47 2.69l-.24 2.18c0 .64-.06 1.18-.07 1.61v1.33s0-.46-.12-1.32c-.06-.44-.13-1-.21-1.6s-.15-1.38-.23-2.21a55.27 55.27 0 0 1-.31-6.17 34.61 34.61 0 0 1 1-8.4 27.49 27.49 0 0 1 4.67-9.75 31.19 31.19 0 0 1 9.63-8.27 48.25 48.25 0 0 1 12.69-4.81 78.41 78.41 0 0 1 13.82-1.89z" transform="translate(-149.31 -89.13)"/><path d="M279.64 116.61c-4.06.6-7.94 1.15-11.57 1.81a75 75 0 0 0-10.07 2.45 34.77 34.77 0 0 0-8.27 3.81 26.83 26.83 0 0 0-6.12 5.34 30.27 30.27 0 0 0-3.9 5.92c-.5.95-.88 1.87-1.25 2.73s-.61 1.67-.86 2.4a30 30 0 0 0-.87 3.43c-.16.8-.2 1.22-.2 1.22s0-.42.07-1.23.06-2 .12-3.58a54 54 0 0 1 .62-5.74 33.72 33.72 0 0 1 2.13-7.62 29.55 29.55 0 0 1 5.31-8.46 35.25 35.25 0 0 1 9.09-7.25 53.56 53.56 0 0 1 11.51-4.78 91.36 91.36 0 0 1 12.53-2.64c8.51-1.23 16.38-1.56 23.37-2.18s13.15-1.5 18.12-3.22a34.45 34.45 0 0 0 6.49-3c.92-.54 1.72-1.13 2.47-1.67s1.39-1.1 1.93-1.64a16 16 0 0 0 1.43-1.45 12.64 12.64 0 0 0 1-1.15c.49-.65.72-1 .72-1s-.23.36-.61 1.08c-.19.36-.43.8-.74 1.31s-.64 1.13-1.08 1.79a32.92 32.92 0 0 1-3.58 4.71 37.43 37.43 0 0 1-5.81 5.3 49.26 49.26 0 0 1-8.29 4.89 72.09 72.09 0 0 1-10.22 3.81c-3.65 1.07-7.49 2-11.43 2.7s-7.99 1.3-12.04 1.91z" transform="translate(-149.31 -89.13)"/><path d="M279.4 117.77c11.73-1 22.78-1.3 32.59-1.92a136 136 0 0 0 13.69-1.44 40.11 40.11 0 0 0 11-3.24 19.06 19.06 0 0 0 4.05-2.66 15.36 15.36 0 0 0 2.82-3.33 17 17 0 0 0 2.22-7.05 21.32 21.32 0 0 0 .06-2.83 15.85 15.85 0 0 0-.17-2.08c-.16-1.12-.29-1.7-.29-1.7s.13.57.45 1.67c.18.54.33 1.23.52 2s.36 1.78.54 2.87a20.82 20.82 0 0 1-.44 8.28 20.08 20.08 0 0 1-2.25 5 24.13 24.13 0 0 1-4 4.72 42.85 42.85 0 0 1-11.75 7.24 90.68 90.68 0 0 1-14.48 4.77c-10.29 2.56-21.56 4-33.2 5s-22.58 1.52-32.41 2.37c-4.92.42-9.57.92-13.88 1.59a93.86 93.86 0 0 0-11.84 2.58 53.59 53.59 0 0 0-9.37 3.65c-1.34.67-2.52 1.4-3.62 2.09a35 35 0 0 0-2.84 2.1l-1.16 1c-.34.32-.65.64-.94.93a15.54 15.54 0 0 0-1.43 1.53c-.72.88-1.07 1.36-1.07 1.36s.34-.49.94-1.45c.28-.49.68-1.07 1.16-1.76l.77-1.12c.29-.39.61-.8.94-1.23.64-.9 1.47-1.79 2.34-2.83l1.46-1.53c.51-.54 1.08-1 1.66-1.6a59.15 59.15 0 0 1 8.66-6.57 82.09 82.09 0 0 1 11.76-6.05 115.57 115.57 0 0 1 14.26-4.84 190.73 190.73 0 0 1 33.25-5.52zM283.53 182.37c-2.1-1.81-4.06-3.42-6-4.82a48.27 48.27 0 0 0-6-3.62l-1.53-.76-1.56-.66a14.8 14.8 0 0 0-1.55-.63l-1.53-.57c-1-.37-2-.66-3-1s-2-.53-2.88-.78-1.84-.42-2.69-.62-1.67-.36-2.43-.47c-1.54-.23-2.87-.48-4-.55s-1.94-.13-2.52-.14-.88 0-.88 0 .3 0 .87-.13 1.4-.28 2.47-.55 2.4-.55 4-.92c.77-.2 1.61-.36 2.51-.52s1.84-.38 2.85-.51 2.09-.28 3.21-.39 2.31-.16 3.55-.17 2.53 0 3.86.15l2 .22 2.1.39a34.07 34.07 0 0 1 8.62 3.07 41 41 0 0 1 7.89 5.44c2.39 2.08 4.43 4.17 6.3 6.09s3.6 3.74 5.33 5.34a60.19 60.19 0 0 0 5.16 4.35c.86.64 1.73 1.23 2.57 1.79s1.69 1.09 2.52 1.54 1.63.91 2.41 1.29l2.22 1.05c1.42.59 2.67 1.07 3.71 1.42s1.88.53 2.44.66.86.17.86.17-.3 0-.88-.05-1.42 0-2.53 0h-4.08l-2.58-.11c-.92-.05-1.88-.18-2.91-.28s-2.1-.33-3.23-.52-2.28-.52-3.48-.87a40 40 0 0 1-7.39-3.06 50.76 50.76 0 0 1-7.22-4.79c-2.33-1.76-4.49-3.67-6.58-5.48z" transform="translate(-149.31 -89.13)"/><path d="M282.7 157.75c-4.36 0-8.53.14-12.54.38a101.27 101.27 0 0 0-11.43 1.33 67.07 67.07 0 0 0-10.14 2.54c-1.53.58-3.09 1.07-4.48 1.76l-2.1.94-1.94 1.07c-.63.36-1.3.66-1.87 1.05l-1.7 1.18c-.55.38-1.11.71-1.61 1.1l-1.43 1.14a42.49 42.49 0 0 0-4.54 4.15 35.16 35.16 0 0 0-2.49 3c-.53.72-.78 1.12-.78 1.12s.24-.4.64-1.2.93-2 1.71-3.58 1.72-3.48 3.1-5.58l1-1.68c.36-.57.8-1.11 1.22-1.7l1.33-1.81c.46-.63 1-1.19 1.54-1.81l1.68-1.89 1.91-1.82a46.82 46.82 0 0 1 4.33-3.62 53.41 53.41 0 0 1 10.91-6.19 61.76 61.76 0 0 1 13.18-4 78.25 78.25 0 0 1 14.46-1.3 99.31 99.31 0 0 1 14.18 1.09 121.49 121.49 0 0 1 12.77 2.7 189.65 189.65 0 0 1 20.67 7c5.75 2.28 10.37 4.18 13.6 5.31A43.2 43.2 0 0 0 349 160s-.47-.08-1.36-.17-2.22-.19-3.93-.29c-3.44-.19-8.44-.35-14.6-.52l-21.31-.67-12.26-.35c-4.2-.16-8.49-.23-12.84-.25z" transform="translate(-149.31 -89.13)"/><path d="M288.28 137.21c-4.18.66-8.19 1.48-12.06 2.29s-7.52 1.84-11 2.9a86.47 86.47 0 0 0-9.68 3.66c-.74.34-1.49.65-2.21 1l-2.06 1.1a43.42 43.42 0 0 0-3.83 2.25 39.52 39.52 0 0 0-3.36 2.34 30.52 30.52 0 0 0-2.85 2.35 40.46 40.46 0 0 0-4.21 4.28 33.46 33.46 0 0 0-2.25 3.08c-.48.73-.7 1.14-.7 1.14s.21-.41.56-1.21.78-2 1.45-3.59l1.17-2.58a29.75 29.75 0 0 1 1.53-3 33.88 33.88 0 0 1 2-3.44 43.32 43.32 0 0 1 2.55-3.7 44.84 44.84 0 0 1 3.18-3.84l1.83-2c.65-.63 1.34-1.25 2-1.89a60 60 0 0 1 9.73-7.18 71 71 0 0 1 12.05-5.61 79.43 79.43 0 0 1 13.68-3.47 88.23 88.23 0 0 1 13.93-1.09 96 96 0 0 1 12.86.86A102.68 102.68 0 0 1 324 124c3.52.87 6.76 1.86 9.66 2.85s5.49 2 7.73 2.92 4.13 1.79 5.67 2.47l3.5 1.63c.8.37 1.23.53 1.23.53s-.43-.15-1.28-.37a31.76 31.76 0 0 0-3.76-.73L344 133c-1-.08-2.11-.14-3.28-.21s-2.44-.07-3.78-.09-2.73 0-4.21 0c-3 .07-6.16.22-9.58.46s-7 .53-10.81.92-7.7.82-11.72 1.31-8.15 1.17-12.34 1.82z" transform="translate(-149.31 -89.13)"/><path d="M322 142c7.85 3 14.79 6.44 21 9.3 3.13 1.39 6.1 2.7 8.92 3.71a49.55 49.55 0 0 0 8 2.25 32.91 32.91 0 0 0 7 .55 11.93 11.93 0 0 0 1.5-.14l1.41-.16a8.08 8.08 0 0 0 1.28-.24l1.16-.29a16.32 16.32 0 0 0 3.28-1.17c.73-.32 1.1-.52 1.1-.52s-.36.2-1 .65-1.59 1.23-2.95 2a34.09 34.09 0 0 1-5.11 2.69 35.7 35.7 0 0 1-7.59 2.17 45.23 45.23 0 0 1-9.62.68 70.09 70.09 0 0 1-10.83-1.26 107.44 107.44 0 0 1-11.3-2.92c-3.8-1.19-7.61-2.57-11.42-4s-7.43-2.93-10.91-4.34-6.81-2.69-10-3.9c-1.61-.52-3.17-1.16-4.7-1.61l-2.28-.73-2.22-.62a70.83 70.83 0 0 0-8.33-1.82 52.13 52.13 0 0 0-7.15-.62h-1.55l-1.42.08-2.52.17c-1.52.19-2.68.46-3.46.62s-1.18.3-1.18.3.39-.13 1.13-.44 1.81-.83 3.21-1.45l2.4-1 1.4-.58 1.53-.51a55.22 55.22 0 0 1 7.41-2.1 59.62 59.62 0 0 1 9.39-1.19l2.62-.09 2.68.06c1.83 0 3.67.23 5.59.4a83.45 83.45 0 0 1 11.65 2.24A110 110 0 0 1 322 142z" transform="translate(-149.31 -89.13)"/><path d="M315.31 152.06c-8.39-1.34-16.1-3.1-23.06-4.5-3.48-.7-6.77-1.31-9.85-1.72a53.63 53.63 0 0 0-8.57-.56 25.72 25.72 0 0 0-7 1.06 16.75 16.75 0 0 0-4.87 2.43 14.16 14.16 0 0 0-2.53 2.48c-.49.66-.72 1-.72 1s.22-.37.59-1.11a26.36 26.36 0 0 1 1.93-3.12 21.92 21.92 0 0 1 4.24-4.25 29.66 29.66 0 0 1 7.13-4 49.17 49.17 0 0 1 9.5-2.62 74.94 74.94 0 0 1 11-1.09 129.43 129.43 0 0 1 24.4 1.87c8.4 1.35 16.12 3.15 23 4.54 3.45.67 6.71 1.26 9.72 1.56a40.86 40.86 0 0 0 4.32.25 25 25 0 0 0 3.87-.3 12.49 12.49 0 0 0 6-2.54 11.94 11.94 0 0 0 3.16-4.24 13.24 13.24 0 0 0 .68-1.92 10.7 10.7 0 0 0 .34-1.48c.13-.81.16-1.24.16-1.24V135.34c0 .61-.08 1.32-.16 2.13a15.42 15.42 0 0 1-1.94 5.79 16.53 16.53 0 0 1-6.22 5.9 29.27 29.27 0 0 1-4.53 2.05 39.82 39.82 0 0 1-5.08 1.4 65.11 65.11 0 0 1-11.16 1.27 131 131 0 0 1-24.35-1.82zM333.62 177.31a211.2 211.2 0 0 1 14.9 15.08c2.16 2.35 4.2 4.53 6.18 6.49a63.31 63.31 0 0 0 5.77 5.15c1 .67 1.86 1.4 2.78 1.91l1.35.82 1.32.66c.43.2.85.43 1.26.58l1.21.44 1.14.39 1.06.23a15.35 15.35 0 0 0 1.81.33c.53 0 1 .06 1.35.07a10.62 10.62 0 0 0 1.12 0s-.38 0-1.11.15l-1.35.25c-.54.11-1.16.14-1.88.23l-1.14.13h-2.66c-.48 0-1-.06-1.51-.08l-1.64-.11-1.73-.26a34.88 34.88 0 0 1-3.77-.79 50.55 50.55 0 0 1-8.23-3 70.48 70.48 0 0 1-8.65-4.79A135.38 135.38 0 0 1 324.14 188c-2.78-2.48-5.4-4.94-7.91-7.28l-3.68-3.46c-1.22-1.09-2.38-2.24-3.55-3.27l-1.72-1.57-1.7-1.49c-1.11-1-2.23-1.9-3.31-2.81-.54-.47-1.08-.89-1.62-1.3l-1.59-1.24c-1.05-.8-2.09-1.5-3.08-2.22s-2-1.29-2.93-1.89c-.47-.31-.93-.57-1.39-.82l-1.33-.74-1.26-.67-1.19-.55-2.12-.93c-1.32-.5-2.37-.79-3.07-1s-1.09-.26-1.09-.26.38.06 1.12.11 1.81.09 3.22.15l2.37.16 1.38.08 1.47.17a67.49 67.49 0 0 1 7 1.07c1.27.31 2.63.59 4 1s2.84.82 4.29 1.36 3 1.09 4.48 1.78c.75.34 1.53.68 2.3 1l2.3 1.17c1.56.78 3.06 1.7 4.63 2.62s3.09 2 4.59 3a101.38 101.38 0 0 1 8.87 7.14z" transform="translate(-149.31 -89.13)"/><path d="M323 175.14c-4.13-2.15-8.06-4.38-11.78-6.55s-7.26-4.33-10.63-6.33-6.57-3.88-9.61-5.6q-2.3-1.24-4.45-2.37c-1.45-.69-2.84-1.43-4.2-2a70.72 70.72 0 0 0-7.51-2.91l-3.2-.91c-1-.21-1.93-.38-2.77-.53l-1.18-.21c-.37 0-.72-.06-1.05-.08-.65 0-1.2-.08-1.65-.1h-1.37s.47 0 1.36-.13l1.65-.23 1.06-.16 1.21-.1 2.89-.28 3.46-.12a78.42 78.42 0 0 1 8.53.39c1.59.14 3.21.42 5 .66s3.47.64 5.3 1a107.9 107.9 0 0 1 11.38 3.25c3.93 1.33 7.94 2.93 12 4.73s8.12 3.82 12.21 5.95 8 4.27 11.69 6.35 7.28 4 10.68 5.85 6.65 3.37 9.77 4.69a56.76 56.76 0 0 0 8.9 2.95c.71.14 1.4.36 2.07.44l2 .28 1 .14h.94l1.8.06a25.9 25.9 0 0 0 6-.67 18 18 0 0 0 3.71-1.21c.83-.35 1.25-.56 1.25-.56s-.42.22-1.18.69a31.58 31.58 0 0 1-3.39 2 35 35 0 0 1-5.91 2.57l-1.9.56-1 .29-1.06.2-2.22.42c-.77.15-1.56.17-2.37.26a51.27 51.27 0 0 1-10.68-.14 78.67 78.67 0 0 1-11.87-2.38 110 110 0 0 1-12.51-4.3c-4.13-1.73-8.3-3.71-12.37-5.86z" transform="translate(-149.31 -89.13)"/><path d="M338.78 154.72c3.19 2 6.22 4 9.12 5.85 1.45 1 2.87 1.81 4.25 2.72s2.75 1.72 4.08 2.44a64.68 64.68 0 0 0 7.71 3.93l1.85.74c.61.22 1.22.38 1.82.57a28.49 28.49 0 0 0 3.52.85 16.88 16.88 0 0 0 1.69.2c.55 0 1.1.14 1.63.14 1.05 0 2.09 0 3.05-.12l2.68-.45 2.2-.7c.33-.11.66-.21.95-.33l.78-.38c.48-.25.89-.46 1.21-.64.66-.36 1-.58 1-.58s-.32.22-.89.7c-.29.24-.64.54-1.05.91l-.66.61c-.25.2-.53.39-.82.61l-1.95 1.47-2.55 1.52c-.94.52-2 .94-3.17 1.46-.58.23-1.19.39-1.83.59s-1.3.43-2 .56a32.69 32.69 0 0 1-4.4.61c-.77 0-1.57.13-2.38.14l-2.44-.07a46.18 46.18 0 0 1-10.31-1.75c-1.78-.46-3.49-1.1-5.27-1.72s-3.51-1.4-5.21-2.23a93.49 93.49 0 0 1-10.2-5.62c-3.33-2.09-6.42-4.27-9.32-6.43s-5.61-4.29-8.17-6.37-5-4-7.24-5.78-4.45-3.37-6.49-4.77c-1-.69-2-1.28-3-1.88s-1.89-1-2.77-1.51-1.74-.77-2.52-1.12a7.61 7.61 0 0 0-1.14-.42l-1.05-.33a16.14 16.14 0 0 0-3.19-.68c-.74-.1-1.13-.11-1.13-.11h1.14c.75 0 1.83-.2 3.28-.19a48.62 48.62 0 0 1 5.36.12c1 .11 2.16.21 3.36.36s2.44.39 3.75.67a74 74 0 0 1 8.4 2.3 97.18 97.18 0 0 1 9.19 3.61c3.11 1.43 6.33 3 9.51 4.81s6.44 3.7 9.62 5.69z" transform="translate(-149.31 -89.13)"/><path d="M312.76 148a129.34 129.34 0 0 1-21.25-4.2c-3.17-.86-6.17-1.79-9-2.62s-5.42-1.64-7.83-2.33l-3.45-.92-3.11-.74-2.74-.52c-.84-.14-1.62-.23-2.32-.32a24.19 24.19 0 0 0-3.23-.19h-1.12s.38-.05 1.1-.22 1.78-.48 3.17-.81 3.08-.81 5.09-1.3l3.24-.73 3.66-.7c2.57-.44 5.42-.87 8.45-1.17s6.28-.51 9.66-.6a167.42 167.42 0 0 1 21.35 1c3.67.38 7.21.83 10.61 1.28l9.73 1.28c3.08.34 6.05.69 8.83.85.71.07 1.39.09 2.06.11l2 .08h3.78a52.53 52.53 0 0 0 6.57-.65c1-.19 1.87-.36 2.71-.54l2.22-.64a14.51 14.51 0 0 0 1.76-.64c.5-.22.92-.4 1.25-.56.67-.31 1-.51 1-.51s-.32.2-.91.66c-.29.22-.64.52-1.06.87l-.66.57-.79.63-1.89 1.51-2.35 1.7a57.45 57.45 0 0 1-6.13 3.76c-1.19.64-2.48 1.2-3.82 1.84s-2.79 1.16-4.3 1.65a66.25 66.25 0 0 1-9.81 2.52 78.43 78.43 0 0 1-11 1.07 92 92 0 0 1-11.47-.47zM322.73 196.82c-2.94-2.77-5.75-5.4-8.48-7.8a85.19 85.19 0 0 0-8.07-6.37 43.59 43.59 0 0 0-8-4.42 33.54 33.54 0 0 0-15-2.53 15.17 15.17 0 0 0-1.55.13c-.49 0-1 .09-1.44.16-.9.17-1.75.29-2.5.47l-2 .5c-.57.18-1 .35-1.42.48-.76.28-1.15.45-1.15.45s.38-.18 1.08-.59c.36-.2.79-.46 1.3-.77l1.8-1a56.85 56.85 0 0 1 5.17-2.61 37.65 37.65 0 0 1 7.55-2.44 34.19 34.19 0 0 1 10-.65 39.54 39.54 0 0 1 11.32 2.61 54 54 0 0 1 11.09 5.88 81.11 81.11 0 0 1 10 8.15c6.31 5.95 11.33 12.07 15.94 17.22a88.84 88.84 0 0 0 6.7 6.89 29.88 29.88 0 0 0 6.58 4.64 18.23 18.23 0 0 0 6.48 1.81 18 18 0 0 0 5.37-.47l1-.27.9-.31a12 12 0 0 0 1.39-.56c.73-.35 1.1-.56 1.1-.56a12.33 12.33 0 0 0-1 .69c-.32.24-.73.52-1.24.85-.26.16-.53.35-.82.54l-1 .57a23.07 23.07 0 0 1-5.41 2.36 22.13 22.13 0 0 1-8.22.72 32.25 32.25 0 0 1-9.73-2.71 57.94 57.94 0 0 1-9.68-5.58c-6.22-4.44-12.17-9.95-18.06-15.48zM345.72 191.35a39.92 39.92 0 0 1-6.34-4.37 41.77 41.77 0 0 1-5.05-5.09 41 41 0 0 1-3.73-5.32 43.06 43.06 0 0 1-2.53-5c-.33-.81-.62-1.57-.88-2.28l-.68-2c-.37-1.3-.67-2.39-.87-3.29s-.36-1.58-.5-2a5.34 5.34 0 0 0-.22-.68 6.13 6.13 0 0 0 .34.63 11.46 11.46 0 0 0 1.17 1.69c.29.35.59.74 1 1.13l1.23 1.26 1.51 1.33 1.75 1.39c1.26.93 2.63 1.91 4.15 2.87s3.13 1.94 4.8 3 3.44 2 5.27 3 3.66 2.1 5.58 3.15 3.76 2.12 5.57 3.07 3.57 1.92 5.29 2.74c.85.45 1.7.81 2.53 1.22l1.24.53c.41.19.81.36 1.22.51l1.19.47 1.18.4c.77.29 1.53.47 2.26.68s1.44.33 2.13.49l2 .26c.61 0 1.19.05 1.74.06s1 0 1.45-.07a10 10 0 0 0 2-.38 7.08 7.08 0 0 0 .68-.21 5.66 5.66 0 0 0-.63.33c-.42.23-1 .65-1.78 1.08a34.43 34.43 0 0 1-3 1.62c-.62.26-1.3.55-2 .83s-1.53.55-2.38.77a27.61 27.61 0 0 1-2.7.61l-1.46.24-1.53.16c-1.05.12-2.11.1-3.24.13s-2.26-.07-3.41-.23a35.11 35.11 0 0 1-7.13-1.52 38.42 38.42 0 0 1-7.22-3.21z" transform="translate(-149.31 -89.13)"/><path d="M330 216.06a44.86 44.86 0 0 1-3.9-8.36 50.48 50.48 0 0 1-2-8.14 54.6 54.6 0 0 1-.67-7.47c-.06-2.34 0-4.51.16-6.49s.33-3.74.53-5.29c.08-.76.19-1.48.28-2.13s.16-1.25.24-1.78c.13-1.06.23-1.88.28-2.43a5.89 5.89 0 0 0 0-.84 14.71 14.71 0 0 0 .71 3.18 59.92 59.92 0 0 0 3.41 8.28c.81 1.69 1.73 3.51 2.74 5.42s2.07 3.91 3.19 6 2.3 4.16 3.48 6.3 2.43 4.26 3.7 6.38 2.55 4 3.82 5.81a35.72 35.72 0 0 0 3.95 4.71 26.82 26.82 0 0 0 2.1 1.91l1.12.8a7.41 7.41 0 0 0 1.15.73 19 19 0 0 0 4.88 2c.82.22 1.64.32 2.44.49s1.55.11 2.29.17a28.47 28.47 0 0 0 3.77-.16c1-.21 1.84-.39 2.37-.54s.8-.26.8-.26a6.6 6.6 0 0 0-.74.4c-.48.28-1.17.72-2 1.34l-1.56.93a19 19 0 0 1-1.93 1.08c-.72.35-1.49.77-2.36 1.11s-1.81.7-2.84 1a22.45 22.45 0 0 1-7.2.76 25.18 25.18 0 0 1-4.16-.61 27 27 0 0 1-4.22-1.51 28 28 0 0 1-7.78-5.28 36.87 36.87 0 0 1-6.05-7.51z" transform="translate(-149.31 -89.13)"/><path class="cls-4" d="M235.29 147.59c-.64-.3-1.46-.56-2.42-.91s-2.06-.64-3.29-1a18.72 18.72 0 0 0-2-.4 18 18 0 0 0-2.17-.32l-2.35-.17c-.81 0-1.65 0-2.51.08a20.38 20.38 0 0 0-2.64.31l-1.36.23-1.36.37a21.74 21.74 0 0 0-2.6.83 27.2 27.2 0 0 1 2.74-1.07l1.2-.43 1.2-.32a24 24 0 0 1 2.37-.58l2.28-.42 2.19-.23c.71-.11 1.4-.06 2.07-.1s1.31-.06 1.92 0a28.38 28.38 0 0 1 3.32.26 21.34 21.34 0 0 1 2.51.42c1.36.32 2.1.55 2.1.55s-.73-.25-2-.82c-.64-.3-1.46-.56-2.42-.9a29.86 29.86 0 0 0-3.29-1 16.5 16.5 0 0 0-2-.4 17.93 17.93 0 0 0-2.17-.33l-2.35-.16c-.81 0-1.65 0-2.51.07a20.43 20.43 0 0 0-2.64.32l-1.36.22-1.36.37a21 21 0 0 0-2.59.83 27 27 0 0 1 2.73-1.06l1.2-.44 1.21-.31a19.16 19.16 0 0 1 2.35-.58l2.29-.42 2.19-.23c.71-.11 1.4-.06 2.07-.1a17.63 17.63 0 0 1 1.92 0c1.23.08 2.35.09 3.32.26a23.66 23.66 0 0 1 2.51.42c1.36.32 2.1.56 2.1.56s-.73-.26-2-.82c-.65-.3-1.46-.56-2.41-.91s-2.07-.64-3.3-1a18.72 18.72 0 0 0-2-.4 18.09 18.09 0 0 0-2.16-.32l-2.36-.17c-.81 0-1.65.05-2.51.08a20.38 20.38 0 0 0-2.64.31L215 138l-1.36.37a21.74 21.74 0 0 0-2.6.83 26.69 26.69 0 0 1 2.74-1.07l1.2-.43 1.21-.32a23.66 23.66 0 0 1 2.35-.58l2.29-.42 2.19-.23c.71-.11 1.4-.06 2.07-.1s1.31-.06 1.92 0a31 31 0 0 1 3.33.27 21.5 21.5 0 0 1 2.5.42c1.36.32 2.1.55 2.1.55s-.73-.25-2-.82c-.64-.3-1.46-.56-2.41-.91a32.58 32.58 0 0 0-3.3-1 18.49 18.49 0 0 0-2-.41 21 21 0 0 0-2.17-.32l-2.36-.17c-.81 0-1.65 0-2.51.08a20.43 20.43 0 0 0-2.64.32l-1.36.22-1.35.37a20.64 20.64 0 0 0-2.6.83 27.9 27.9 0 0 1 2.73-1.06l1.2-.44 1.21-.32a23.17 23.17 0 0 1 2.36-.58l2.28-.42 2.19-.22a18.37 18.37 0 0 1 2.07-.1 17.64 17.64 0 0 1 1.92 0c1.23.08 2.36.09 3.33.26a23.87 23.87 0 0 1 2.5.42c1.36.32 2.1.55 2.1.55s-.73-.25-2-.81c-.65-.3-1.47-.56-2.42-.91a32.44 32.44 0 0 0-3.3-1 18.53 18.53 0 0 0-2-.4 16.66 16.66 0 0 0-2.17-.32l-2.36-.17c-.81 0-1.65 0-2.51.08a20 20 0 0 0-2.63.31l-1.36.23-1.38.42a19.65 19.65 0 0 0-2.6.84 25.67 25.67 0 0 1 2.73-1.07l1.2-.43 1.21-.32a23.17 23.17 0 0 1 2.36-.58l2.28-.42 2.19-.23c.72-.11 1.4-.06 2.07-.1a17.81 17.81 0 0 1 1.93 0 30.77 30.77 0 0 1 3.32.27 19.56 19.56 0 0 1 2.5.42c1.36.31 2.11.55 2.11.55s-.73-.26-2-.82c-.65-.3-1.47-.56-2.42-.91a32.58 32.58 0 0 0-3.3-1 18.49 18.49 0 0 0-2-.41 18 18 0 0 0-2.17-.32l-2.36-.17c-.81 0-1.65 0-2.51.08a18.5 18.5 0 0 0-2.63.32l-1.36.22-1.36.37a21.18 21.18 0 0 0-2.6.83 27.9 27.9 0 0 1 2.71-1.12l1.2-.44 1.21-.32a23.17 23.17 0 0 1 2.36-.58l2.28-.42 2.19-.22c.72-.11 1.4-.07 2.07-.11s1.32-.06 1.93 0a30.94 30.94 0 0 1 3.32.26 21.5 21.5 0 0 1 2.5.42c1.36.32 2.11.55 2.11.55s-.73-.25-2-.81c-.65-.31-1.47-.56-2.42-.91a30.08 30.08 0 0 0-3.3-1 16.33 16.33 0 0 0-2-.4 17.93 17.93 0 0 0-2.17-.33l-2.36-.16c-.81 0-1.64 0-2.51.07a22.34 22.34 0 0 0-2.64.32l-1.35.22-1.36.37a21.18 21.18 0 0 0-2.6.83 27.9 27.9 0 0 1 2.73-1.06l1.2-.43 1.21-.32a23.17 23.17 0 0 1 2.36-.58l2.29-.42 2.19-.23c.71-.11 1.4-.06 2.06-.1a17.82 17.82 0 0 1 1.93 0c1.22.08 2.35.09 3.32.26a23.87 23.87 0 0 1 2.5.42c1.36.32 2.11.56 2.11.56s-.73-.26-2-.82c-.65-.3-1.47-.56-2.42-.91a34.32 34.32 0 0 0-3.3-1 18.53 18.53 0 0 0-2-.4 18 18 0 0 0-2.17-.32l-2.36-.17c-.81 0-1.64 0-2.51.08a20.23 20.23 0 0 0-2.63.31l-1.36.23-1.36.37a21.18 21.18 0 0 0-2.6.83 28 28 0 0 1 2.73-1.07l1.21-.43 1.2-.32a23.17 23.17 0 0 1 2.36-.58l2.28-.42 2.2-.23c.71-.11 1.4-.06 2.06-.1s1.32-.06 1.93 0a30.77 30.77 0 0 1 3.32.27 22.09 22.09 0 0 1 2.51.42c1.35.32 2.1.55 2.1.55s-.73-.25-2-.82c-.65-.3-1.47-.56-2.42-.91a31.83 31.83 0 0 0-3.3-1 18.49 18.49 0 0 0-2-.41 20.19 20.19 0 0 0-2.17-.32l-2.36-.16c-.81 0-1.64 0-2.51.07a20.28 20.28 0 0 0-2.63.32l-1.36.22-1.36.37a21.74 21.74 0 0 0-2.6.83 27.9 27.9 0 0 1 2.73-1.06l1.21-.44 1.2-.32a23.74 23.74 0 0 1 2.36-.57l2.29-.42 2.19-.23a18.31 18.31 0 0 1 2.06-.1 17.82 17.82 0 0 1 1.93 0c1.22.08 2.35.09 3.32.26a23.66 23.66 0 0 1 2.51.42c1.36.32 2.1.55 2.1.55s-.73-.25-2-.81c-.65-.3-1.47-.56-2.42-.91a34.32 34.32 0 0 0-3.3-1 39 39 0 0 0-4.14-.72l-2.36-.17c-.81 0-1.64 0-2.51.08a20.23 20.23 0 0 0-2.63.31l-1.36.23-1.36.37a27.61 27.61 0 0 0-5.49 2.1l-2.65 1.51q-1.22.85-2.37 1.71a20.22 20.22 0 0 0-2.15 1.82 23.12 23.12 0 0 0-1.94 1.88 38.35 38.35 0 0 0-3.19 3.84 39.09 39.09 0 0 0-2.42 3.59l-1.81 3.07c-.48.93-.88 1.73-1.21 2.38-.68 1.3-1.1 2-1.1 2s.44-.67 1.31-1.84l1.6-2.1c.68-.76 1.45-1.63 2.31-2.58s1.86-1.9 2.91-2.95 2.29-2 3.51-3.1c.59-.57 1.32-1 2-1.52l.49-.37c-.57.46-1.11 1-1.64 1.42a24.5 24.5 0 0 0-1.93 1.87A40.74 40.74 0 0 0 191 129a39.17 39.17 0 0 0-2.42 3.6c-.68 1.14-1.28 2.16-1.81 3.07s-.88 1.73-1.22 2.38c-.67 1.3-1.09 2-1.09 2s.44-.68 1.31-1.84l1.6-2.11 2.3-2.58c.82-1 1.87-1.9 2.92-2.94s2.29-2 3.51-3.11c.59-.56 1.32-1 2-1.52l.48-.35c-.57.45-1.1.94-1.62 1.4a23.12 23.12 0 0 0-1.94 1.88 39.51 39.51 0 0 0-3.19 3.84 41.46 41.46 0 0 0-2.43 3.59l-1.8 3.07c-.48.93-.88 1.73-1.22 2.39-.67 1.3-1.09 2-1.09 2s.44-.67 1.31-1.83c.44-.58 1-1.29 1.6-2.11l2.3-2.58c.81-1 1.87-1.9 2.92-2.94s2.28-2 3.51-3.11c.59-.57 1.31-1 2-1.52l.49-.37c-.57.46-1.11 1-1.64 1.42a22.93 22.93 0 0 0-1.93 1.88 39.43 39.43 0 0 0-3.19 3.83 41.54 41.54 0 0 0-2.43 3.6c-.67 1.14-1.27 2.17-1.81 3.07l-1.21 2.38c-.67 1.3-1.09 2-1.09 2s.44-.67 1.31-1.84l1.6-2.1 2.3-2.59c.82-1 1.87-1.89 2.92-2.94s2.28-2 3.5-3.11c.6-.56 1.32-1 2-1.51l.48-.37c-.57.46-1.1.95-1.63 1.41a26.53 26.53 0 0 0-1.93 1.88 40.74 40.74 0 0 0-3.19 3.84 41.46 41.46 0 0 0-2.43 3.59c-.67 1.14-1.27 2.17-1.81 3.07l-1.24 2.3c-.67 1.3-1.09 2-1.09 2s.44-.67 1.31-1.83c.43-.58 1-1.29 1.6-2.11l2.3-2.58c.81-1 1.87-1.9 2.92-2.94s2.28-2 3.5-3.11c.6-.56 1.32-1 2-1.52.16-.11.32-.24.48-.36-.57.45-1.1.94-1.63 1.41a26.64 26.64 0 0 0-1.94 1.88 39.6 39.6 0 0 0-3.18 3.84 38 38 0 0 0-2.43 3.59c-.67 1.14-1.27 2.17-1.81 3.07l-1.21 2.38c-.68 1.3-1.09 2-1.09 2s.43-.67 1.3-1.84l1.61-2.1 2.3-2.58c.81-1 1.87-1.9 2.92-2.95s2.28-2 3.5-3.11c.6-.56 1.32-1 2-1.51l.48-.36c-.57.45-1.1.94-1.63 1.41a26.53 26.53 0 0 0-1.94 1.87 42.16 42.16 0 0 0-3.18 3.84 41.54 41.54 0 0 0-2.43 3.6l-1.81 3.07-1.21 2.38c-.68 1.3-1.09 2-1.09 2s.43-.68 1.3-1.84l1.61-2.11 2.3-2.58c.81-1 1.87-1.9 2.91-2.94s2.29-2 3.51-3.11c.6-.56 1.32-1 2-1.52.16-.11.32-.24.48-.36-.57.45-1.1.94-1.63 1.41a26.64 26.64 0 0 0-1.94 1.88 39.6 39.6 0 0 0-3.18 3.84 41.46 41.46 0 0 0-2.43 3.59l-1.81 3.07-1.21 2.38c-.67 1.3-1.09 2-1.09 2s.43-.67 1.3-1.84l1.61-2.1 2.3-2.58c.81-1 1.87-1.9 2.91-2.94s2.29-2 3.51-3.11c.6-.57 1.32-1 2-1.52l.47-.35c-.57.45-1.1.93-1.62 1.4a26.53 26.53 0 0 0-1.94 1.87 39.1 39.1 0 0 0-3.18 3.84 37.44 37.44 0 0 0-2.43 3.6l-1.81 3.07-1.21 2.38c-.68 1.3-1.1 2-1.1 2s.44-.68 1.31-1.84L193 162l2.3-2.58c.81-1 1.87-1.9 2.91-2.94s2.29-2 3.51-3.11c.6-.56 1.32-1 2-1.51l.48-.37c-.57.46-1.1.94-1.63 1.41a24.76 24.76 0 0 0-1.94 1.88 40.57 40.57 0 0 0-3.18 3.84 39.3 39.3 0 0 0-2.43 3.59l-1.81 3.08c-.47.92-.88 1.72-1.21 2.38-.68 1.3-1.1 2-1.1 2s.44-.67 1.31-1.83l1.6-2.11c.68-.76 1.45-1.63 2.31-2.58s1.86-1.9 2.91-2.94 2.29-2 3.51-3.11c.6-.57 1.32-1 2-1.52a22.81 22.81 0 0 1 2.11-1.49c.73-.48 1.48-1 2.24-1.44l2.39-1.28a37.84 37.84 0 0 1 4.89-2.07l1.2-.44 1.21-.31a20.64 20.64 0 0 1 2.35-.58l2.29-.42 2.19-.23c.71-.11 1.4-.06 2.07-.1a17.63 17.63 0 0 1 1.92 0c1.22.08 2.35.09 3.32.26a23.66 23.66 0 0 1 2.51.42c1.36.32 2.1.56 2.1.56s-.74-.31-2.04-.87zM287.65 111.66c1.9.71 3.68 1.47 5.37 2.19s3.28 1.42 4.81 2c.76.31 1.5.54 2.23.81s1.43.46 2.12.59a16.48 16.48 0 0 0 3.91.51 12.81 12.81 0 0 0 3.31-.44c.47-.15.93-.26 1.34-.43l1.08-.51a5.52 5.52 0 0 0 .83-.49l.59-.4c.31-.22.47-.35.47-.35s-.16.13-.43.39l-.51.51a6 6 0 0 1-.72.67l-.95.81c-.36.29-.79.54-1.24.85a14.26 14.26 0 0 1-3.41 1.58 16.91 16.91 0 0 1-4.58.72 22.43 22.43 0 0 1-2.58-.06c-.86-.1-1.77-.18-2.66-.36a42.69 42.69 0 0 1-5.46-1.36c-1.84-.56-3.67-1.23-5.5-1.91s-3.58-1.37-5.25-2a46.19 46.19 0 0 0-4.82-1.45 9.26 9.26 0 0 0-1.14-.24c-.38-.07-.75-.17-1.12-.21a18 18 0 0 0-2.15-.19 17.2 17.2 0 0 0-3.94.27 6.09 6.09 0 0 0-.89.21l-.84.22a6 6 0 0 0-.78.28l-.73.28a9.4 9.4 0 0 0-1.27.61l-1.06.58a22.19 22.19 0 0 0-1.82 1.36l.41-.41c.27-.28.65-.7 1.13-1.25l.9-.86a9.31 9.31 0 0 1 1.12-1c.42-.32.86-.72 1.38-1.06s1.07-.71 1.69-1a17.27 17.27 0 0 1 4.34-1.61 20.91 20.91 0 0 1 2.59-.41c.45-.05.89 0 1.36-.06a12.89 12.89 0 0 1 1.39 0 29.53 29.53 0 0 1 5.74.82 47.52 47.52 0 0 1 5.74 1.8z" transform="translate(-149.31 -89.13)"/><path class="cls-1" d="M295.07 115.23c1.9.7 3.68 1.46 5.37 2.18s3.28 1.42 4.81 2c.76.31 1.5.55 2.23.81s1.43.46 2.12.59a17.06 17.06 0 0 0 3.92.52 13.72 13.72 0 0 0 3.3-.44c.47-.16.94-.27 1.34-.44l1.08-.51a5.52 5.52 0 0 0 .83-.49l.59-.4c.31-.22.47-.35.47-.35s-.16.13-.43.4l-.51.5a6 6 0 0 1-.72.67c-.28.25-.6.52-1 .81s-.78.54-1.23.86a15.38 15.38 0 0 1-3.42 1.58 17.32 17.32 0 0 1-4.58.71 25 25 0 0 1-2.58 0c-.86-.11-1.77-.19-2.66-.36a42.75 42.75 0 0 1-5.46-1.37c-1.84-.56-3.67-1.23-5.5-1.91s-3.58-1.37-5.25-2a46.19 46.19 0 0 0-4.82-1.45 9.26 9.26 0 0 0-1.14-.24c-.37-.07-.75-.16-1.12-.2a20.47 20.47 0 0 0-2.15-.2 17.24 17.24 0 0 0-3.94.27 6 6 0 0 0-.88.21l-.84.23a5.49 5.49 0 0 0-.78.27l-.74.29a9.41 9.41 0 0 0-1.27.6l-1.06.58a22.19 22.19 0 0 0-1.82 1.36s.15-.14.41-.41.65-.7 1.14-1.25l.89-.86a11.28 11.28 0 0 1 1.12-1c.42-.32.86-.72 1.38-1.06s1.07-.71 1.69-1a17.21 17.21 0 0 1 4.35-1.6 18.77 18.77 0 0 1 2.58-.42c.45-.05.9 0 1.36-.06a12.89 12.89 0 0 1 1.39 0 29.53 29.53 0 0 1 5.74.82 47.57 47.57 0 0 1 5.79 1.76z" transform="translate(-149.31 -89.13)"/><path class="cls-4" d="M281.85 165.76c1.9.7 3.68 1.46 5.36 2.18s3.29 1.42 4.81 2c.77.31 1.51.55 2.24.81s1.43.46 2.12.59a17 17 0 0 0 3.91.52 13.65 13.65 0 0 0 3.3-.44c.48-.16.94-.27 1.34-.44l1.09-.51a6.07 6.07 0 0 0 .83-.49l.58-.4c.32-.22.48-.35.48-.35s-.16.13-.44.39l-.5.51a6.89 6.89 0 0 1-.72.67l-.95.81c-.36.29-.79.54-1.24.86a15.08 15.08 0 0 1-3.41 1.58 17.38 17.38 0 0 1-4.58.71 22.43 22.43 0 0 1-2.58-.06c-.86-.1-1.78-.18-2.66-.36a41.22 41.22 0 0 1-5.47-1.36c-1.83-.56-3.66-1.23-5.49-1.91s-3.58-1.37-5.25-1.95a46.93 46.93 0 0 0-4.82-1.45 9.66 9.66 0 0 0-1.14-.24c-.38-.07-.75-.16-1.12-.2a20.41 20.41 0 0 0-2.16-.2 17.28 17.28 0 0 0-3.94.27 6.27 6.27 0 0 0-.88.21l-.84.22a7.91 7.91 0 0 0-.78.28l-.73.29a10.19 10.19 0 0 0-1.28.6l-1.06.58a22.19 22.19 0 0 0-1.82 1.36l.42-.41c.27-.28.65-.7 1.13-1.25l.9-.86a11.11 11.11 0 0 1 1.11-1c.43-.32.86-.72 1.38-1.06s1.07-.71 1.7-1a17.27 17.27 0 0 1 4.34-1.6 18.92 18.92 0 0 1 2.59-.42c.44-.05.89 0 1.35-.06a13.08 13.08 0 0 1 1.4 0 29.53 29.53 0 0 1 5.74.82 46.37 46.37 0 0 1 5.74 1.76z" transform="translate(-149.31 -89.13)"/><path class="cls-1" d="M298.81 140.59c3.34 1.24 6.48 2.58 9.46 3.85s5.8 2.5 8.49 3.52c1.34.56 2.65 1 3.93 1.44s2.54.81 3.75 1a30.76 30.76 0 0 0 6.91.91 23.28 23.28 0 0 0 5.82-.78c.84-.27 1.66-.47 2.37-.77l1.91-.9a10.21 10.21 0 0 0 1.47-.86l1-.71c.56-.39.83-.62.83-.62s-.27.23-.76.7l-.9.89a11.39 11.39 0 0 1-1.26 1.19l-1.68 1.42c-.63.51-1.39 1-2.18 1.51a26.41 26.41 0 0 1-6 2.79 30.82 30.82 0 0 1-8.09 1.27 43.78 43.78 0 0 1-4.55-.11c-1.51-.18-3.13-.32-4.69-.63a77.11 77.11 0 0 1-9.64-2.4c-3.24-1-6.47-2.18-9.7-3.39s-6.31-2.41-9.26-3.42a82.1 82.1 0 0 0-8.5-2.57c-.68-.19-1.35-.31-2-.43s-1.33-.28-2-.35a36.45 36.45 0 0 0-3.81-.35 30 30 0 0 0-6.95.48 12.52 12.52 0 0 0-1.55.37l-1.49.4a9.61 9.61 0 0 0-1.37.48l-1.29.5a15.87 15.87 0 0 0-2.26 1.08l-1.87 1c-2.13 1.47-3.21 2.39-3.21 2.39s.27-.24.74-.73 1.14-1.23 2-2.2l1.58-1.51a17.12 17.12 0 0 1 2-1.76c.76-.58 1.52-1.28 2.44-1.87s1.89-1.26 3-1.83a30.69 30.69 0 0 1 7.67-2.82 32.64 32.64 0 0 1 4.56-.73c.79-.09 1.58-.08 2.4-.12a22.43 22.43 0 0 1 2.46 0 50.5 50.5 0 0 1 10.13 1.45 83.35 83.35 0 0 1 10.09 3.22z" transform="translate(-149.31 -89.13)"/><path d="M165.67 316s4.27-3.27 1.37-10.83l-3 .19s3.15 7-.81 10.21z" transform="translate(-149.31 -89.13)"/><path d="M17.32 175.79l-5.47-23.23-5.19 4.76-2.49 10.72 5.67-7.73 3.85 16.08 4.54 17.86-.91-18.46z"/><path d="M167.56 285.47L157.14 273l3.64 19.23 2 1.62-2.38 4.47 1.49 7.45 7.14 7.15z" transform="translate(-149.31 -89.13)"/><path d="M167 305.15a2 2 0 1 1-2-2 2 2 0 0 1 2 2z" transform="translate(-149.31 -89.13)"/><path d="M163.83 304.88s-4.23 3.05-.89 10.64l2.68.44s-3.11-7.3.65-10.78zM159.14 293.44a1.48 1.48 0 1 1-1.51-1.45 1.47 1.47 0 0 1 1.51 1.45zM157.67 287.78a2 2 0 1 1-2.09-2 2 2 0 0 1 2.09 2zM156.51 281a2.39 2.39 0 1 1-2.43-2.34 2.38 2.38 0 0 1 2.43 2.34z" transform="translate(-149.31 -89.13)"/><path d="M183.5 175.79l5.77-23.23 5.6 4.76 2.66 10.72-6.05-7.73-4.11 16.08-4.84 17.86.97-18.46z"/><path d="M332.28 285.47L342.7 273l-3.64 19.23c-1.07.87-2 1.62-2 1.62l2.38 4.47-1.48 7.45-7.15 7.15z" transform="translate(-149.31 -89.13)"/><path class="cls-5" d="M225.15 398.1c2.43 19-6.08 35.79-19 37.44s-25.36-12.44-27.79-31.47 6.07-35.8 19-37.45 25.36 12.45 27.79 31.48z" transform="translate(-149.31 -89.13)"/><path class="cls-5" d="M205.53 400.6c1.94 15.22-1.89 28.26-8.55 29.11s-13.65-10.8-15.59-26 1.88-28.25 8.55-29.1 13.65 10.77 15.59 25.99z" transform="translate(-149.31 -89.13)"/><path class="cls-1" d="M199.5 401.37c1.45 11.42-1.42 21.19-6.42 21.83s-10.24-8.1-11.69-19.52 1.41-21.19 6.41-21.83 10.2 8.15 11.7 19.52z" transform="translate(-149.31 -89.13)"/><path class="cls-2" d="M202.06 371.43s19 23.14 8.75 57.13c0 0 14.11-30.33-8.75-57.13z" transform="translate(-149.31 -89.13)"/><path d="M190.59 402.19c.58 8-2.27 14.79-6.38 15.09s-7.89-6-8.47-14 2.27-14.8 6.37-15.1 7.89 5.96 8.48 14.01z" transform="translate(-149.31 -89.13)"/><path class="cls-1" d="M180 396.26s-11.47-24.92 11.22-45.89c0 0-25.61 15.5-13.42 54.4z" transform="translate(-149.31 -89.13)"/><path d="M193 352.15l4.58 5.64s-18.49 8.5-16.82 40c-.04.03-11.3-23.65 12.24-45.64z" transform="translate(-149.31 -89.13)"/><path class="cls-5" d="M29.74 318.65l2.84-10.35 3.48 2.73-3.11 10.68-3.21-3.06z"/><path class="cls-2" d="M35.93 309.25l-5.03-7.7.92 4.41 4.11 3.29z"/><path class="cls-5" d="M275 398.1c-2.43 19 6.08 35.79 19 37.44s25.36-12.44 27.79-31.47-6.07-35.8-19-37.45-25.4 12.45-27.79 31.48z" transform="translate(-149.31 -89.13)"/><path class="cls-5" d="M294.58 400.6c-1.94 15.22 1.89 28.26 8.55 29.11s13.65-10.8 15.6-26-1.89-28.25-8.56-29.1-13.65 10.77-15.59 25.99z" transform="translate(-149.31 -89.13)"/><path class="cls-1" d="M300.62 401.37c-1.46 11.42 1.41 21.19 6.41 21.83s10.24-8.1 11.7-19.52-1.42-21.19-6.42-21.83-10.24 8.15-11.69 19.52z" transform="translate(-149.31 -89.13)"/><path class="cls-2" d="M298.05 371.43s-19 23.14-8.75 57.13c0 0-14.11-30.33 8.75-57.13z" transform="translate(-149.31 -89.13)"/><path d="M309.52 402.19c-.58 8 2.28 14.79 6.38 15.09s7.89-6 8.47-14-2.27-14.8-6.37-15.1-7.9 5.96-8.48 14.01z" transform="translate(-149.31 -89.13)"/><path class="cls-1" d="M320.1 396.26s11.46-24.92-11.23-45.89c0 0 25.61 15.5 13.42 54.4z" transform="translate(-149.31 -89.13)"/><path d="M307.15 352.15l-4.58 5.64s18.5 8.5 16.82 40c0 .03 11.26-23.65-12.24-45.64z" transform="translate(-149.31 -89.13)"/><path class="cls-5" d="M171.75 318.65l-2.83-10.35-3.49 2.73 3.12 10.68 3.2-3.06z"/><path class="cls-2" d="M165.56 309.25l5.04-7.7-.92 4.41-4.12 3.29z"/></svg>