<?xml version="1.0" encoding="UTF-8"?><svg xmlns="http://www.w3.org/2000/svg" xmlns:xlink="http://www.w3.org/1999/xlink" fill-opacity="1" color-rendering="auto" color-interpolation="auto" text-rendering="auto" stroke="black" stroke-linecap="square" width="820" stroke-miterlimit="10" shape-rendering="auto" stroke-opacity="1" fill="black" stroke-dasharray="none" font-weight="normal" stroke-width="1" height="640" font-family="'Dialog'" font-style="normal" stroke-linejoin="miter" font-size="12px" stroke-dashoffset="0" image-rendering="auto">
  <!--Generated by ySVG 2.5-->
  <defs id="genericDefs"/>
  <g>
    <defs id="defs1">
      <clipPath clipPathUnits="userSpaceOnUse" id="clipPath1">
        <path d="M0 0 L820 0 L820 640 L0 640 L0 0 Z"/>
      </clipPath>
      <clipPath clipPathUnits="userSpaceOnUse" id="clipPath2">
        <path d="M-345 -235 L475 -235 L475 405 L-345 405 L-345 -235 Z"/>
      </clipPath>
      <clipPath clipPathUnits="userSpaceOnUse" id="clipPath3">
        <path d="M-630.5382 -134.3503 L-50.7106 -714.1779 L401.8377 -261.6295 L-177.9899 318.1981 L-630.5382 -134.3503 Z"/>
      </clipPath>
      <clipPath clipPathUnits="userSpaceOnUse" id="clipPath4">
        <path d="M-535 215 L-535 -605 L105 -605 L105 215 L-535 215 Z"/>
      </clipPath>
      <clipPath clipPathUnits="userSpaceOnUse" id="clipPath5">
        <path d="M-326.4823 438.4062 L-906.3099 -141.4214 L-453.7615 -593.9697 L126.066 -14.1421 L-326.4823 438.4062 Z"/>
      </clipPath>
    </defs>
    <g fill="white" text-rendering="geometricPrecision" shape-rendering="geometricPrecision" transform="translate(345,235)" stroke="white">
      <rect x="-345" width="820" height="640" y="-235" clip-path="url(#clipPath2)" stroke="none"/>
    </g>
    <g fill="rgb(162,212,171)" text-rendering="geometricPrecision" shape-rendering="geometricPrecision" transform="matrix(1,0,0,1,345,235)" stroke="rgb(162,212,171)">
      <circle r="20" clip-path="url(#clipPath2)" cx="20" cy="20" stroke="none"/>
    </g>
    <g text-rendering="geometricPrecision" stroke-miterlimit="1.45" shape-rendering="geometricPrecision" transform="matrix(1,0,0,1,345,235)" stroke-linecap="butt">
      <circle fill="none" r="20" clip-path="url(#clipPath2)" cx="20" cy="20"/>
    </g>
    <g fill="white" text-rendering="geometricPrecision" shape-rendering="geometricPrecision" transform="matrix(1,0,0,1,345,235)" stroke="white">
      <rect x="-120" width="100" height="60" y="-10" clip-path="url(#clipPath2)" stroke="none"/>
    </g>
    <g text-rendering="geometricPrecision" stroke-miterlimit="1.45" shape-rendering="geometricPrecision" transform="matrix(1,0,0,1,345,235)" stroke-linecap="butt">
      <rect fill="none" x="-120" width="100" height="60" y="-10" clip-path="url(#clipPath2)"/>
      <text x="-112.1199" font-size="13px" y="9.6025" clip-path="url(#clipPath2)" font-family="sans-serif" stroke="none" xml:space="preserve">name: jupiter</text>
      <text x="-99.7896" font-size="13px" y="24.9131" clip-path="url(#clipPath2)" font-family="sans-serif" stroke="none" xml:space="preserve">type: god</text>
      <text x="-101.8176" font-size="13px" y="40.2236" clip-path="url(#clipPath2)" font-family="sans-serif" stroke="none" xml:space="preserve">age: 5000</text>
    </g>
    <g fill="rgb(229,238,193)" text-rendering="geometricPrecision" shape-rendering="geometricPrecision" transform="matrix(1,0,0,1,345,235)" stroke="rgb(229,238,193)">
      <circle r="20" clip-path="url(#clipPath2)" cx="20" cy="-130" stroke="none"/>
    </g>
    <g text-rendering="geometricPrecision" stroke-miterlimit="1.45" shape-rendering="geometricPrecision" transform="matrix(1,0,0,1,345,235)" stroke-linecap="butt">
      <circle fill="none" r="20" clip-path="url(#clipPath2)" cx="20" cy="-130"/>
    </g>
    <g fill="white" text-rendering="geometricPrecision" shape-rendering="geometricPrecision" transform="matrix(1,0,0,1,345,235)" stroke="white">
      <rect x="-30" width="100" height="60" y="-220" clip-path="url(#clipPath2)" stroke="none"/>
    </g>
    <g text-rendering="geometricPrecision" stroke-miterlimit="1.45" shape-rendering="geometricPrecision" transform="matrix(1,0,0,1,345,235)" stroke-linecap="butt">
      <rect fill="none" x="-30" width="100" height="60" y="-220" clip-path="url(#clipPath2)"/>
      <text x="-21.4883" font-size="13px" y="-200.3975" clip-path="url(#clipPath2)" font-family="sans-serif" stroke="none" xml:space="preserve">name: saturn</text>
      <text x="-12.0176" font-size="13px" y="-185.0869" clip-path="url(#clipPath2)" font-family="sans-serif" stroke="none" xml:space="preserve">type: titan</text>
      <text x="-15.9277" font-size="13px" y="-169.7764" clip-path="url(#clipPath2)" font-family="sans-serif" stroke="none" xml:space="preserve">age: 10000</text>
    </g>
    <g fill="rgb(90,80,80)" text-rendering="geometricPrecision" shape-rendering="geometricPrecision" transform="matrix(1,0,0,1,345,235)" stroke="rgb(90,80,80)">
      <circle r="20" clip-path="url(#clipPath2)" cx="170" cy="-130" stroke="none"/>
    </g>
    <g text-rendering="geometricPrecision" stroke-miterlimit="1.45" shape-rendering="geometricPrecision" transform="matrix(1,0,0,1,345,235)" stroke-linecap="butt">
      <circle fill="none" r="20" clip-path="url(#clipPath2)" cx="170" cy="-130"/>
    </g>
    <g fill="white" text-rendering="geometricPrecision" shape-rendering="geometricPrecision" transform="matrix(1,0,0,1,345,235)" stroke="white">
      <rect x="120" width="100" height="40" y="-200" clip-path="url(#clipPath2)" stroke="none"/>
    </g>
    <g text-rendering="geometricPrecision" stroke-miterlimit="1.45" shape-rendering="geometricPrecision" transform="matrix(1,0,0,1,345,235)" stroke-linecap="butt">
      <rect fill="none" x="120" width="100" height="40" y="-200" clip-path="url(#clipPath2)"/>
      <text x="138.0649" font-size="13px" y="-182.7422" clip-path="url(#clipPath2)" font-family="sans-serif" stroke="none" xml:space="preserve">name: sky</text>
      <text x="127.22" font-size="13px" y="-167.4316" clip-path="url(#clipPath2)" font-family="sans-serif" stroke="none" xml:space="preserve">type: location</text>
    </g>
    <g fill="rgb(162,212,171)" text-rendering="geometricPrecision" shape-rendering="geometricPrecision" transform="matrix(1,0,0,1,345,235)" stroke="rgb(162,212,171)">
      <circle r="20" clip-path="url(#clipPath2)" cx="170" cy="170" stroke="none"/>
    </g>
    <g text-rendering="geometricPrecision" stroke-miterlimit="1.45" shape-rendering="geometricPrecision" transform="matrix(1,0,0,1,345,235)" stroke-linecap="butt">
      <circle fill="none" r="20" clip-path="url(#clipPath2)" cx="170" cy="170"/>
    </g>
    <g fill="rgb(162,212,171)" text-rendering="geometricPrecision" shape-rendering="geometricPrecision" transform="matrix(1,0,0,1,345,235)" stroke="rgb(162,212,171)">
      <circle r="20" clip-path="url(#clipPath2)" cx="320" cy="20" stroke="none"/>
    </g>
    <g text-rendering="geometricPrecision" stroke-miterlimit="1.45" shape-rendering="geometricPrecision" transform="matrix(1,0,0,1,345,235)" stroke-linecap="butt">
      <circle fill="none" r="20" clip-path="url(#clipPath2)" cx="320" cy="20"/>
    </g>
    <g fill="rgb(90,80,80)" text-rendering="geometricPrecision" shape-rendering="geometricPrecision" transform="matrix(1,0,0,1,345,235)" stroke="rgb(90,80,80)">
      <circle r="20" clip-path="url(#clipPath2)" cx="320" cy="-130" stroke="none"/>
    </g>
    <g text-rendering="geometricPrecision" stroke-miterlimit="1.45" shape-rendering="geometricPrecision" transform="matrix(1,0,0,1,345,235)" stroke-linecap="butt">
      <circle fill="none" r="20" clip-path="url(#clipPath2)" cx="320" cy="-130"/>
    </g>
    <g fill="white" text-rendering="geometricPrecision" shape-rendering="geometricPrecision" transform="matrix(1,0,0,1,345,235)" stroke="white">
      <rect x="270" width="100" height="40" y="-200" clip-path="url(#clipPath2)" stroke="none"/>
    </g>
    <g text-rendering="geometricPrecision" stroke-miterlimit="1.45" shape-rendering="geometricPrecision" transform="matrix(1,0,0,1,345,235)" stroke-linecap="butt">
      <rect fill="none" x="270" width="100" height="40" y="-200" clip-path="url(#clipPath2)"/>
      <text x="288.0491" font-size="13px" y="-182.7422" clip-path="url(#clipPath2)" font-family="sans-serif" stroke="none" xml:space="preserve">name: sea</text>
      <text x="277.22" font-size="13px" y="-167.4316" clip-path="url(#clipPath2)" font-family="sans-serif" stroke="none" xml:space="preserve">type: location</text>
    </g>
    <g fill="rgb(62,172,168)" text-rendering="geometricPrecision" shape-rendering="geometricPrecision" transform="matrix(1,0,0,1,345,235)" stroke="rgb(62,172,168)">
      <circle r="20" clip-path="url(#clipPath2)" cx="20" cy="170" stroke="none"/>
    </g>
    <g text-rendering="geometricPrecision" stroke-miterlimit="1.45" shape-rendering="geometricPrecision" transform="matrix(1,0,0,1,345,235)" stroke-linecap="butt">
      <circle fill="none" r="20" clip-path="url(#clipPath2)" cx="20" cy="170"/>
    </g>
    <g fill="rgb(153,184,152)" text-rendering="geometricPrecision" shape-rendering="geometricPrecision" transform="matrix(1,0,0,1,345,235)" stroke="rgb(153,184,152)">
      <circle r="20" clip-path="url(#clipPath2)" cx="-130" cy="170" stroke="none"/>
    </g>
    <g text-rendering="geometricPrecision" stroke-miterlimit="1.45" shape-rendering="geometricPrecision" transform="matrix(1,0,0,1,345,235)" stroke-linecap="butt">
      <circle fill="none" r="20" clip-path="url(#clipPath2)" cx="-130" cy="170"/>
    </g>
    <g fill="white" text-rendering="geometricPrecision" shape-rendering="geometricPrecision" transform="matrix(1,0,0,1,345,235)" stroke="white">
      <rect x="360" width="100" height="60" y="-10" clip-path="url(#clipPath2)" stroke="none"/>
    </g>
    <g text-rendering="geometricPrecision" stroke-miterlimit="1.45" shape-rendering="geometricPrecision" transform="matrix(1,0,0,1,345,235)" stroke-linecap="butt">
      <rect fill="none" x="360" width="100" height="60" y="-10" clip-path="url(#clipPath2)"/>
      <text x="362.7068" font-size="13px" y="9.6025" clip-path="url(#clipPath2)" font-family="sans-serif" stroke="none" xml:space="preserve">name: neptune</text>
      <text x="380.2104" font-size="13px" y="24.9131" clip-path="url(#clipPath2)" font-family="sans-serif" stroke="none" xml:space="preserve">type: god</text>
      <text x="378.1824" font-size="13px" y="40.2236" clip-path="url(#clipPath2)" font-family="sans-serif" stroke="none" xml:space="preserve">age: 4500</text>
    </g>
    <g fill="rgb(84,122,130)" text-rendering="geometricPrecision" shape-rendering="geometricPrecision" transform="matrix(1,0,0,1,345,235)" stroke="rgb(84,122,130)">
      <circle r="20" clip-path="url(#clipPath2)" cx="20" cy="320" stroke="none"/>
    </g>
    <g text-rendering="geometricPrecision" stroke-miterlimit="1.45" shape-rendering="geometricPrecision" transform="matrix(1,0,0,1,345,235)" stroke-linecap="butt">
      <circle fill="none" r="20" clip-path="url(#clipPath2)" cx="20" cy="320"/>
    </g>
    <g fill="rgb(84,122,130)" text-rendering="geometricPrecision" shape-rendering="geometricPrecision" transform="matrix(1,0,0,1,345,235)" stroke="rgb(84,122,130)">
      <circle r="20" clip-path="url(#clipPath2)" cx="-130" cy="320" stroke="none"/>
    </g>
    <g text-rendering="geometricPrecision" stroke-miterlimit="1.45" shape-rendering="geometricPrecision" transform="matrix(1,0,0,1,345,235)" stroke-linecap="butt">
      <circle fill="none" r="20" clip-path="url(#clipPath2)" cx="-130" cy="320"/>
    </g>
    <g fill="rgb(84,122,130)" text-rendering="geometricPrecision" shape-rendering="geometricPrecision" transform="matrix(1,0,0,1,345,235)" stroke="rgb(84,122,130)">
      <circle r="20" clip-path="url(#clipPath2)" cx="-280" cy="320" stroke="none"/>
    </g>
    <g text-rendering="geometricPrecision" stroke-miterlimit="1.45" shape-rendering="geometricPrecision" transform="matrix(1,0,0,1,345,235)" stroke-linecap="butt">
      <circle fill="none" r="20" clip-path="url(#clipPath2)" cx="-280" cy="320"/>
    </g>
    <g fill="rgb(90,80,80)" text-rendering="geometricPrecision" shape-rendering="geometricPrecision" transform="matrix(1,0,0,1,345,235)" stroke="rgb(90,80,80)">
      <circle r="20" clip-path="url(#clipPath2)" cx="170" cy="320" stroke="none"/>
    </g>
    <g text-rendering="geometricPrecision" stroke-miterlimit="1.45" shape-rendering="geometricPrecision" transform="matrix(1,0,0,1,345,235)" stroke-linecap="butt">
      <circle fill="none" r="20" clip-path="url(#clipPath2)" cx="170" cy="320"/>
    </g>
    <g fill="white" text-rendering="geometricPrecision" shape-rendering="geometricPrecision" transform="matrix(1,0,0,1,345,235)" stroke="white">
      <rect x="210" width="100" height="60" y="140" clip-path="url(#clipPath2)" stroke="none"/>
    </g>
    <g text-rendering="geometricPrecision" stroke-miterlimit="1.45" shape-rendering="geometricPrecision" transform="matrix(1,0,0,1,345,235)" stroke-linecap="butt">
      <rect fill="none" x="210" width="100" height="60" y="140" clip-path="url(#clipPath2)"/>
      <text x="222.1458" font-size="13px" y="159.6025" clip-path="url(#clipPath2)" font-family="sans-serif" stroke="none" xml:space="preserve">name: pluto</text>
      <text x="230.2104" font-size="13px" y="174.9131" clip-path="url(#clipPath2)" font-family="sans-serif" stroke="none" xml:space="preserve">type: god</text>
      <text x="228.1824" font-size="13px" y="190.2236" clip-path="url(#clipPath2)" font-family="sans-serif" stroke="none" xml:space="preserve">age: 4000</text>
    </g>
    <g fill="white" text-rendering="geometricPrecision" shape-rendering="geometricPrecision" transform="matrix(1,0,0,1,345,235)" stroke="white">
      <rect x="120" width="100" height="40" y="350" clip-path="url(#clipPath2)" stroke="none"/>
    </g>
    <g text-rendering="geometricPrecision" stroke-miterlimit="1.45" shape-rendering="geometricPrecision" transform="matrix(1,0,0,1,345,235)" stroke-linecap="butt">
      <rect fill="none" x="120" width="100" height="40" y="350" clip-path="url(#clipPath2)"/>
      <text x="123.8652" font-size="13px" y="367.2578" clip-path="url(#clipPath2)" font-family="sans-serif" stroke="none" xml:space="preserve">name: tartarus</text>
      <text x="127.22" font-size="13px" y="382.5684" clip-path="url(#clipPath2)" font-family="sans-serif" stroke="none" xml:space="preserve">type: location</text>
    </g>
    <g fill="white" text-rendering="geometricPrecision" shape-rendering="geometricPrecision" transform="matrix(1,0,0,1,345,235)" stroke="white">
      <rect x="-30" width="100" height="40" y="350" clip-path="url(#clipPath2)" stroke="none"/>
    </g>
    <g text-rendering="geometricPrecision" stroke-miterlimit="1.45" shape-rendering="geometricPrecision" transform="matrix(1,0,0,1,345,235)" stroke-linecap="butt">
      <rect fill="none" x="-30" width="100" height="40" y="350" clip-path="url(#clipPath2)"/>
      <text x="-28.7563" font-size="13px" y="367.2578" clip-path="url(#clipPath2)" font-family="sans-serif" stroke="none" xml:space="preserve">name: cerberus</text>
      <text x="-23.7734" font-size="13px" y="382.5684" clip-path="url(#clipPath2)" font-family="sans-serif" stroke="none" xml:space="preserve">type: monster</text>
    </g>
    <g fill="white" text-rendering="geometricPrecision" shape-rendering="geometricPrecision" transform="matrix(1,0,0,1,345,235)" stroke="white">
      <rect x="-180" width="100" height="40" y="350" clip-path="url(#clipPath2)" stroke="none"/>
    </g>
    <g text-rendering="geometricPrecision" stroke-miterlimit="1.45" shape-rendering="geometricPrecision" transform="matrix(1,0,0,1,345,235)" stroke-linecap="butt">
      <rect fill="none" x="-180" width="100" height="40" y="350" clip-path="url(#clipPath2)"/>
      <text x="-169.1968" font-size="13px" y="367.2578" clip-path="url(#clipPath2)" font-family="sans-serif" stroke="none" xml:space="preserve">name: hydra</text>
      <text x="-173.7734" font-size="13px" y="382.5684" clip-path="url(#clipPath2)" font-family="sans-serif" stroke="none" xml:space="preserve">type: monster</text>
    </g>
    <g fill="white" text-rendering="geometricPrecision" shape-rendering="geometricPrecision" transform="matrix(1,0,0,1,345,235)" stroke="white">
      <rect x="-330" width="100" height="40" y="350" clip-path="url(#clipPath2)" stroke="none"/>
    </g>
    <g text-rendering="geometricPrecision" stroke-miterlimit="1.45" shape-rendering="geometricPrecision" transform="matrix(1,0,0,1,345,235)" stroke-linecap="butt">
      <rect fill="none" x="-330" width="100" height="40" y="350" clip-path="url(#clipPath2)"/>
      <text x="-326.395" font-size="13px" y="367.2578" clip-path="url(#clipPath2)" font-family="sans-serif" stroke="none" xml:space="preserve">name: nemean</text>
      <text x="-323.7734" font-size="13px" y="382.5684" clip-path="url(#clipPath2)" font-family="sans-serif" stroke="none" xml:space="preserve">type: monster</text>
    </g>
    <g fill="white" text-rendering="geometricPrecision" shape-rendering="geometricPrecision" transform="matrix(1,0,0,1,345,235)" stroke="white">
      <rect x="-270" width="100" height="60" y="140" clip-path="url(#clipPath2)" stroke="none"/>
    </g>
    <g text-rendering="geometricPrecision" stroke-miterlimit="1.45" shape-rendering="geometricPrecision" transform="matrix(1,0,0,1,345,235)" stroke-linecap="butt">
      <rect fill="none" x="-270" width="100" height="60" y="140" clip-path="url(#clipPath2)"/>
      <text x="-267.9185" font-size="13px" y="159.6025" clip-path="url(#clipPath2)" font-family="sans-serif" stroke="none" xml:space="preserve">name: hercules</text>
      <text x="-265.4492" font-size="13px" y="174.9131" clip-path="url(#clipPath2)" font-family="sans-serif" stroke="none" xml:space="preserve">type: demigod</text>
      <text x="-243.5974" font-size="13px" y="190.2236" clip-path="url(#clipPath2)" font-family="sans-serif" stroke="none" xml:space="preserve">age: 30</text>
    </g>
    <g fill="white" text-rendering="geometricPrecision" shape-rendering="geometricPrecision" transform="matrix(1,0,0,1,345,235)" stroke="white">
      <rect x="-30" width="100" height="60" y="80" clip-path="url(#clipPath2)" stroke="none"/>
    </g>
    <g text-rendering="geometricPrecision" stroke-miterlimit="1.45" shape-rendering="geometricPrecision" transform="matrix(1,0,0,1,345,235)" stroke-linecap="butt">
      <rect fill="none" x="-30" width="100" height="60" y="80" clip-path="url(#clipPath2)"/>
      <text x="-27.5693" font-size="13px" y="99.6025" clip-path="url(#clipPath2)" font-family="sans-serif" stroke="none" xml:space="preserve">name: alcmene</text>
      <text x="-19.4126" font-size="13px" y="114.9131" clip-path="url(#clipPath2)" font-family="sans-serif" stroke="none" xml:space="preserve">type: human</text>
      <text x="-3.5974" font-size="13px" y="130.2236" clip-path="url(#clipPath2)" font-family="sans-serif" stroke="none" xml:space="preserve">age: 45</text>
      <path fill="none" d="M20 0 L20 -95" clip-path="url(#clipPath2)"/>
      <path fill="white" d="M20 -110 L14 -94 L26 -94 Z" clip-path="url(#clipPath2)" stroke="none"/>
      <path fill="none" d="M20 -110 L14 -94 L26 -94 Z" clip-path="url(#clipPath2)"/>
      <rect x="-0.7256" y="-64.6553" clip-path="url(#clipPath2)" fill="white" width="41.4512" height="19.3105" stroke="none"/>
      <text x="1.2744" font-size="13px" y="-50.0869" clip-path="url(#clipPath2)" font-family="sans-serif" stroke="none" xml:space="preserve">father</text>
      <path fill="none" d="M34.1421 5.8579 L152.3223 -112.3223" clip-path="url(#clipPath2)"/>
      <path d="M155.1508 -115.1508 L142.4228 -110.9081 L155.1508 -115.1508 L150.9081 -102.4228 Z" clip-path="url(#clipPath2)" stroke="none"/>
      <path fill="none" stroke-miterlimit="10" d="M155.1508 -115.1508 L142.4228 -110.9081 L155.1508 -115.1508 L150.9081 -102.4228 Z" clip-path="url(#clipPath2)" stroke-linecap="square"/>
      <rect x="78.9431" y="-64.6553" clip-path="url(#clipPath2)" fill="white" width="32.1138" height="19.3105" stroke="none"/>
      <text x="80.9431" font-size="13px" y="-50.0869" clip-path="url(#clipPath2)" font-family="sans-serif" stroke="none" xml:space="preserve">lives</text>
      <rect x="75.0272" y="-83.3108" clip-path="url(#clipPath2)" fill="white" width="163.2871" height="18.1328" stroke="none"/>
      <rect stroke-linecap="square" x="75.0272" y="-83.3108" clip-path="url(#clipPath2)" fill="none" width="163.2871" height="18.1328" stroke-miterlimit="1.6"/>
      <text x="77.0273" xml:space="preserve" y="-69.7092" clip-path="url(#clipPath2)" font-family="sans-serif" stroke="none">reason: loves fresh breezes</text>
      <path fill="none" d="M39.799 39.799 L150.201 150.201" clip-path="url(#clipPath2)"/>
      <path d="M34.1421 34.1421 L39.0919 46.163 L40.5061 40.5061 L46.163 39.0919 Z" clip-path="url(#clipPath2)" stroke="none"/>
      <path d="M155.8579 155.8579 L150.9081 143.8371 L149.4939 149.4939 L143.8371 150.9081 Z" clip-path="url(#clipPath2)" stroke="none"/>
      <rect x="69.5105" y="85.3447" clip-path="url(#clipPath2)" fill="white" width="50.979" height="19.3105" stroke="none"/>
      <text x="71.5105" font-size="13px" y="99.9131" clip-path="url(#clipPath2)" font-family="sans-serif" stroke="none" xml:space="preserve">brother</text>
      <path fill="none" d="M189.799 150.201 L300.201 39.799" clip-path="url(#clipPath2)"/>
      <path d="M184.1421 155.8579 L196.1629 150.9081 L190.5061 149.4939 L189.0919 143.8371 Z" clip-path="url(#clipPath2)" stroke="none"/>
      <path d="M305.8578 34.1421 L293.837 39.0919 L299.4939 40.5061 L300.9081 46.1629 Z" clip-path="url(#clipPath2)" stroke="none"/>
      <rect x="219.5105" y="85.3447" clip-path="url(#clipPath2)" fill="white" width="50.979" height="19.3105" stroke="none"/>
      <text x="221.5105" font-size="13px" y="99.9131" clip-path="url(#clipPath2)" font-family="sans-serif" stroke="none" xml:space="preserve">brother</text>
      <path fill="none" d="M48 20 L292 20" clip-path="url(#clipPath2)"/>
      <path d="M40 20 L52 25 L49 20 L52 15 Z" clip-path="url(#clipPath2)" stroke="none"/>
      <path d="M300 20 L288 15 L291 20 L288 25 Z" clip-path="url(#clipPath2)" stroke="none"/>
      <rect x="144.5105" y="10.3447" clip-path="url(#clipPath2)" fill="white" width="50.979" height="19.3105" stroke="none"/>
      <text x="146.5105" font-size="13px" y="24.9131" clip-path="url(#clipPath2)" font-family="sans-serif" stroke="none" xml:space="preserve">brother</text>
      <path fill="none" d="M320 0 L320 -105" clip-path="url(#clipPath2)"/>
      <path d="M320 -109 L314 -97 L320 -109 L326 -97 Z" clip-path="url(#clipPath2)" stroke="none"/>
      <path fill="none" stroke-miterlimit="10" d="M320 -109 L314 -97 L320 -109 L326 -97 Z" clip-path="url(#clipPath2)" stroke-linecap="square"/>
      <rect x="303.9431" y="-64.6553" clip-path="url(#clipPath2)" fill="white" width="32.1138" height="19.3105" stroke="none"/>
      <text x="305.9431" font-size="13px" y="-50.0869" clip-path="url(#clipPath2)" font-family="sans-serif" stroke="none" xml:space="preserve">lives</text>
      <rect x="260.3555" y="-83.524" clip-path="url(#clipPath2)" fill="white" width="119.2891" height="18.1328" stroke="none"/>
      <rect stroke-linecap="square" x="260.3555" y="-83.524" clip-path="url(#clipPath2)" fill="none" width="119.2891" height="18.1328" stroke-miterlimit="1.6"/>
      <text x="262.3555" xml:space="preserve" y="-69.9224" clip-path="url(#clipPath2)" font-family="sans-serif" stroke="none">reason: loves waves</text>
      <path fill="none" d="M-115.8579 155.8579 L-4.7487 44.7487" clip-path="url(#clipPath2)"/>
      <path fill="white" d="M5.8579 34.1421 L-9.6985 41.2132 L-1.2132 49.6985 Z" clip-path="url(#clipPath2)" stroke="none"/>
      <path fill="none" d="M5.8579 34.1421 L-9.6985 41.2132 L-1.2132 49.6985 Z" clip-path="url(#clipPath2)"/>
      <rect x="-75.7256" y="85.3447" clip-path="url(#clipPath2)" fill="white" width="41.4512" height="19.3105" stroke="none"/>
      <text x="-73.7256" font-size="13px" y="99.9131" clip-path="url(#clipPath2)" font-family="sans-serif" stroke="none" xml:space="preserve">father</text>
      <path fill="none" d="M-110 170 L-11 170" clip-path="url(#clipPath2)"/>
      <path d="M0 170 L-12 164 L-12 176 Z" clip-path="url(#clipPath2)" stroke="none"/>
      <rect x="-79.8071" y="160.3447" clip-path="url(#clipPath2)" fill="white" width="49.6143" height="19.3105" stroke="none"/>
      <text x="-77.8071" font-size="13px" y="174.9131" clip-path="url(#clipPath2)" font-family="sans-serif" stroke="none" xml:space="preserve">mother</text>
      <path fill="none" d="M-115.8579 184.1421 L5.8579 305.8578" clip-path="url(#clipPath2)"/>
      <path fill="white" d="M0 0 L-16 -6 L-16 6 Z" clip-path="url(#clipPath3)" transform="matrix(0.7071,0.7071,-0.7071,0.7071,5.8579,305.8578)" stroke="none"/>
      <path fill="none" d="M0 0 L-16 -6 L-16 6 Z" clip-path="url(#clipPath3)" transform="matrix(0.7071,0.7071,-0.7071,0.7071,5.8579,305.8578)"/>
      <line transform="matrix(0.7071,0.7071,-0.7071,0.7071,5.8579,305.8578)" clip-path="url(#clipPath3)" fill="none" x1="-21" x2="-21" y1="-8" y2="8"/>
    </g>
    <g stroke-linecap="butt" transform="matrix(1,0,0,1,345,235)" fill="white" text-rendering="geometricPrecision" shape-rendering="geometricPrecision" stroke="white" stroke-miterlimit="1.45">
      <rect x="-53.9605" width="48.2686" height="19.3105" y="218.0921" clip-path="url(#clipPath2)" stroke="none"/>
    </g>
    <g font-size="13px" stroke-linecap="butt" transform="matrix(1,0,0,1,345,235)" text-rendering="geometricPrecision" font-family="sans-serif" shape-rendering="geometricPrecision" stroke-miterlimit="1.45">
      <text x="-51.9605" xml:space="preserve" y="232.6604" clip-path="url(#clipPath2)" stroke="none">battled</text>
    </g>
    <g stroke-linecap="butt" transform="matrix(1,0,0,1,345,235)" fill="white" text-rendering="geometricPrecision" shape-rendering="geometricPrecision" stroke="white" stroke-miterlimit="1.45">
      <rect x="-40.5484" width="87.8242" height="32.2656" y="244.8045" clip-path="url(#clipPath2)" stroke="none"/>
    </g>
    <g text-rendering="geometricPrecision" stroke-miterlimit="1.6" shape-rendering="geometricPrecision" transform="matrix(1,0,0,1,345,235)">
      <rect fill="none" x="-40.5484" width="87.8242" height="32.2656" y="244.8045" clip-path="url(#clipPath2)"/>
      <text stroke-linecap="butt" x="-20.9439" y="258.4061" clip-path="url(#clipPath2)" font-family="sans-serif" stroke="none" stroke-miterlimit="1.45" xml:space="preserve">time: 12</text>
      <text stroke-linecap="butt" x="-38.5484" y="272.5389" clip-path="url(#clipPath2)" font-family="sans-serif" stroke="none" stroke-miterlimit="1.45" xml:space="preserve">place: [39, 22]</text>
      <path fill="none" stroke-miterlimit="1.45" d="M155.8579 184.1421 L39.0919 300.9081" clip-path="url(#clipPath2)" stroke-linecap="butt"/>
    </g>
    <g stroke-linecap="butt" transform="matrix(1,0,0,1,345,235)" fill="white" text-rendering="geometricPrecision" shape-rendering="geometricPrecision" stroke="white" stroke-miterlimit="1.45">
      <path d="M34.1421 305.8578 L35.5564 297.3726 L44.0416 295.9584 L42.6274 304.4436 Z" stroke="none" clip-path="url(#clipPath2)"/>
      <path fill="none" d="M34.1421 305.8578 L35.5564 297.3726 L44.0416 295.9584 L42.6274 304.4436 Z" clip-path="url(#clipPath2)" stroke="black"/>
      <rect x="82.8564" width="24.2871" height="19.3105" y="235.3447" clip-path="url(#clipPath2)" stroke="none"/>
    </g>
    <g font-size="13px" stroke-linecap="butt" transform="matrix(1,0,0,1,345,235)" text-rendering="geometricPrecision" font-family="sans-serif" shape-rendering="geometricPrecision" stroke-miterlimit="1.45">
      <text x="84.8564" xml:space="preserve" y="249.9131" clip-path="url(#clipPath2)" stroke="none">pet</text>
      <path fill="none" d="M-130 190 L-130 300" clip-path="url(#clipPath2)"/>
    </g>
    <g stroke-linecap="butt" transform="matrix(0,1,-1,0,215,535)" fill="white" text-rendering="geometricPrecision" shape-rendering="geometricPrecision" stroke="white" stroke-miterlimit="1.45">
      <path d="M0 0 L-16 -6 L-16 6 Z" stroke="none" clip-path="url(#clipPath4)"/>
      <path fill="none" d="M0 0 L-16 -6 L-16 6 Z" clip-path="url(#clipPath4)" stroke="black"/>
      <line clip-path="url(#clipPath4)" fill="none" x1="-21" x2="-21" y1="-8" y2="8" stroke="black"/>
    </g>
    <g stroke-linecap="butt" transform="matrix(1,0,0,1,345,235)" fill="white" text-rendering="geometricPrecision" shape-rendering="geometricPrecision" stroke="white" stroke-miterlimit="1.45">
      <rect x="-154.1343" width="48.2686" height="19.3105" y="218.3447" clip-path="url(#clipPath2)" stroke="none"/>
    </g>
    <g font-size="13px" stroke-linecap="butt" transform="matrix(1,0,0,1,345,235)" text-rendering="geometricPrecision" font-family="sans-serif" shape-rendering="geometricPrecision" stroke-miterlimit="1.45">
      <text x="-152.1343" xml:space="preserve" y="232.9131" clip-path="url(#clipPath2)" stroke="none">battled</text>
    </g>
    <g stroke-linecap="butt" transform="matrix(1,0,0,1,345,235)" fill="white" text-rendering="geometricPrecision" shape-rendering="geometricPrecision" stroke="white" stroke-miterlimit="1.45">
      <rect x="-185.2969" width="110.5938" height="32.2656" y="244.6372" clip-path="url(#clipPath2)" stroke="none"/>
    </g>
    <g text-rendering="geometricPrecision" stroke-miterlimit="1.6" shape-rendering="geometricPrecision" transform="matrix(1,0,0,1,345,235)">
      <rect fill="none" x="-185.2969" width="110.5938" height="32.2656" y="244.6372" clip-path="url(#clipPath2)"/>
      <text stroke-linecap="butt" x="-150.5137" y="258.2388" clip-path="url(#clipPath2)" font-family="sans-serif" stroke="none" stroke-miterlimit="1.45" xml:space="preserve">time: 2</text>
      <text stroke-linecap="butt" x="-183.2969" y="272.3716" clip-path="url(#clipPath2)" font-family="sans-serif" stroke="none" stroke-miterlimit="1.45" xml:space="preserve">place: [37.7, 23.9]</text>
      <path fill="none" stroke-miterlimit="1.45" d="M-144.1421 184.1421 L-265.8578 305.8578" clip-path="url(#clipPath2)" stroke-linecap="butt"/>
    </g>
    <g stroke-linecap="butt" transform="matrix(-0.7071,0.7071,-0.7071,-0.7071,79.1422,540.8578)" fill="white" text-rendering="geometricPrecision" shape-rendering="geometricPrecision" stroke="white" stroke-miterlimit="1.45">
      <path d="M0 0 L-16 -6 L-16 6 Z" stroke="none" clip-path="url(#clipPath5)"/>
      <path fill="none" d="M0 0 L-16 -6 L-16 6 Z" clip-path="url(#clipPath5)" stroke="black"/>
      <line clip-path="url(#clipPath5)" fill="none" x1="-21" x2="-21" y1="-8" y2="8" stroke="black"/>
    </g>
    <g stroke-linecap="butt" transform="matrix(1,0,0,1,345,235)" fill="white" text-rendering="geometricPrecision" shape-rendering="geometricPrecision" stroke="white" stroke-miterlimit="1.45">
      <rect x="-254.308" width="48.2686" height="19.3105" y="218.0921" clip-path="url(#clipPath2)" stroke="none"/>
    </g>
    <g font-size="13px" stroke-linecap="butt" transform="matrix(1,0,0,1,345,235)" text-rendering="geometricPrecision" font-family="sans-serif" shape-rendering="geometricPrecision" stroke-miterlimit="1.45">
      <text x="-252.308" xml:space="preserve" y="232.6604" clip-path="url(#clipPath2)" stroke="none">battled</text>
    </g>
    <g stroke-linecap="butt" transform="matrix(1,0,0,1,345,235)" fill="white" text-rendering="geometricPrecision" shape-rendering="geometricPrecision" stroke="white" stroke-miterlimit="1.45">
      <rect x="-318.0519" width="110.5938" height="32.2656" y="244.1958" clip-path="url(#clipPath2)" stroke="none"/>
    </g>
    <g text-rendering="geometricPrecision" stroke-miterlimit="1.6" shape-rendering="geometricPrecision" transform="matrix(1,0,0,1,345,235)">
      <rect fill="none" x="-318.0519" width="110.5938" height="32.2656" y="244.1958" clip-path="url(#clipPath2)"/>
      <text stroke-linecap="butt" x="-283.2687" y="257.7974" clip-path="url(#clipPath2)" font-family="sans-serif" stroke="none" stroke-miterlimit="1.45" xml:space="preserve">time: 1</text>
      <text stroke-linecap="butt" x="-316.0519" y="271.9302" clip-path="url(#clipPath2)" font-family="sans-serif" stroke="none" stroke-miterlimit="1.45" xml:space="preserve">place: [38.1, 23.7]</text>
      <path fill="none" stroke-miterlimit="1.45" d="M40 320 L145 320" clip-path="url(#clipPath2)" stroke-linecap="butt"/>
      <path stroke-miterlimit="1.45" d="M149 320 L137 314 L149 320 L137 326 Z" clip-path="url(#clipPath2)" stroke-linecap="butt" stroke="none"/>
      <path fill="none" d="M149 320 L137 314 L149 320 L137 326 Z" stroke-miterlimit="10" clip-path="url(#clipPath2)"/>
    </g>
    <g stroke-linecap="butt" transform="matrix(1,0,0,1,345,235)" fill="white" text-rendering="geometricPrecision" shape-rendering="geometricPrecision" stroke="white" stroke-miterlimit="1.45">
      <rect x="78.9431" width="32.1138" height="19.3105" y="310.3447" clip-path="url(#clipPath2)" stroke="none"/>
    </g>
    <g font-size="13px" stroke-linecap="butt" transform="matrix(1,0,0,1,345,235)" text-rendering="geometricPrecision" font-family="sans-serif" shape-rendering="geometricPrecision" stroke-miterlimit="1.45">
      <text x="80.9431" xml:space="preserve" y="324.9131" clip-path="url(#clipPath2)" stroke="none">lives</text>
      <path fill="none" d="M170 190 L170 295" clip-path="url(#clipPath2)"/>
      <path d="M170 299 L176 287 L170 299 L164 287 Z" stroke="none" clip-path="url(#clipPath2)"/>
    </g>
    <g text-rendering="geometricPrecision" shape-rendering="geometricPrecision" transform="matrix(1,0,0,1,345,235)">
      <path fill="none" d="M170 299 L176 287 L170 299 L164 287 Z" clip-path="url(#clipPath2)"/>
    </g>
    <g stroke-linecap="butt" transform="matrix(1,0,0,1,345,235)" fill="white" text-rendering="geometricPrecision" shape-rendering="geometricPrecision" stroke="white" stroke-miterlimit="1.45">
      <rect x="153.9431" width="32.1138" height="19.3105" y="235.3447" clip-path="url(#clipPath2)" stroke="none"/>
    </g>
    <g font-size="13px" stroke-linecap="butt" transform="matrix(1,0,0,1,345,235)" text-rendering="geometricPrecision" font-family="sans-serif" shape-rendering="geometricPrecision" stroke-miterlimit="1.45">
      <text x="155.9431" xml:space="preserve" y="249.9131" clip-path="url(#clipPath2)" stroke="none">lives</text>
    </g>
    <g stroke-linecap="butt" transform="matrix(1,0,0,1,345,235)" fill="white" text-rendering="geometricPrecision" shape-rendering="geometricPrecision" stroke="white" stroke-miterlimit="1.45">
      <rect x="97.9102" width="144.1797" height="18.1328" y="254.9827" clip-path="url(#clipPath2)" stroke="none"/>
    </g>
    <g text-rendering="geometricPrecision" stroke-miterlimit="1.6" shape-rendering="geometricPrecision" transform="matrix(1,0,0,1,345,235)">
      <rect fill="none" x="97.9102" width="144.1797" height="18.1328" y="254.9827" clip-path="url(#clipPath2)"/>
      <text stroke-linecap="butt" x="99.9102" y="268.5843" clip-path="url(#clipPath2)" font-family="sans-serif" stroke="none" stroke-miterlimit="1.45" xml:space="preserve">resaon: no fear of death</text>
    </g>
  </g>
</svg>
