<svg version="1.2" xmlns="http://www.w3.org/2000/svg" viewBox="0 0 1513 975" width="1513" height="975">
	<title>ae99cd49-2667-464e-b9db-b39cee0126e1-svg</title>
	<style>
		.s0 { fill: #ff5a00 } 
	</style>
	<g id="#ff5a00ff">
		<path id="Layer" class="s0" d="m989.5 0h67.8c95.3 5.4 196.5 23.1 272.4 85.5 60.6 49.1 86.3 133 71.4 208.6-11.4 56.4-37.4 108.4-65.4 158.1-56.8 98.4-126.6 188.2-193 280.1-11.9 15.2-21.2 33.8-20 53.6 1.1 15.7 13.1 28.4 27.2 34 27.3 11.1 57.5 8.9 86.2 7.3 90.7-9.5 178.1-37 264.6-64.6 6.6-4.1 8.8 2.6 11.3 7.4-91.9 61.3-190.8 112.4-294.8 150-57.5 19.3-118.3 37.6-179.6 30.4-32.2-3.2-64.5-22.4-74.6-54.5-12.5-41.8-7.9-88.1 10.2-127.6 27.5-61.7 70.2-114.7 110.7-168.2 67.1-88 136.4-175.5 189.1-273.3 17.4-34.7 36-76.8 18.7-115.1-16.3-35.3-51.7-56.1-85.6-71.8-60.2-26.9-124.4-43.1-187.7-61.1q-14.3 9.4-28.5 19c22 16.8 44 33.6 65.8 50.7-83.3 15-166.3 31.8-248.3 52.7-124.9 31-246.8 72.5-367.6 116.5 11.8 23.5 23.5 47.1 34.7 70.9-27.3 30.2-54.4 60.7-81.7 90.9 65.6 19.6 136.3 22.3 203.2 7.5 57.2-12.8 111-40.2 154.7-79.3-11.9-14.8-26.9-26.7-43.1-36.5 53.1 1.1 101.4 47.4 101.5 101.1q-15.6 0.1-31 0.2c-2.2-11.7-5.3-23-9.4-34.1-60.3 54.5-138.2 88.6-218.9 97.4-71.1 8.2-143.8-1.6-210.7-26.6 4.5 41.4 9 82.6 13.2 124-38 14.8-73.3 36.2-104.9 62-25.1 21.9-50 47.1-59.6 79.9-9.2 28.9 5.8 61.7 31.1 77.2 30.7 19 66.5 27.8 101.9 32.9 46.7 6.1 93.9 5.6 140.8 2.3 92.1-6.8 183.1-24.1 272.7-45.8 8.9-3.6 13.1 11.1 4 13.4-71.5 36.8-146.3 67.8-224.3 87.8-73.3 18.9-148.8 28.6-224.4 31.2-77.1-2.4-159-17.3-220.1-67.8-45.4-36.8-69.3-95.2-69.5-153.1v-3.1c1.5-61.2 22.2-120.4 52-173.4 39.2-74.8 87.5-145 144.6-207.3 98.7-108.7 222.5-192.8 355.6-253.7 137.9-62.5 285.5-107.4 437.3-115.7z"/>
	</g>
</svg>