<svg xmlns="http://www.w3.org/2000/svg" width="24" height="24" viewBox="0 0 24 24"><path fill="#ff5a00" d="M14.391 16.22c-.963.044-.865-.459-.302-1.234c1.32-1.768 3.82-4.236 3.906-5.982c.151-2.283-2.143-3.026-4.501-3.004c-1.645.022-3.344.492-4.501.906C5 8.315 2.489 10.576.909 13.076C-.768 15.554-.216 17.923 3.322 18c2.716-.109 4.48-.862 6.32-1.802c.01 0-5.086 1.453-6.958.383l-.008-.002c-.193-.11-.404-.264-.457-.683c-.012-.885 1.46-1.802 2.283-2.097v-1.533a5.4 5.4 0 0 0 1.955.366a5.38 5.38 0 0 0 3.472-1.265c.037.13.056.278.044.447h.371c.048-.394-.172-.706-.172-.706c-.333-.529-.915-.52-.915-.52s.315.137.529.466a4.95 4.95 0 0 1-4.665.932l1.21-1.2l-.336-.874c2.435-.852 4.48-1.507 7.812-2.085l-.746-.624l.389-.24c2.01.568 3.325.985 3.253 2.051a2.7 2.7 0 0 1-.202.611c-.584 1.158-2.326 3.09-3.029 3.898c-.465.535-.92 1.06-1.245 1.562c-.335.503-.54.971-.551 1.42c.043 3.504 10.334-1.64 12.324-3.003c-2.943 1.266-6.113 2.489-9.609 2.718"/></svg>