<svg version="1.2" xmlns="http://www.w3.org/2000/svg" viewBox="0 0 1181 1544" width="1181" height="1544">
	<title>蚂蚁集团标志（RGB）-ai-svg</title>
	<defs>
		<linearGradient id="g1" x2="1" gradientUnits="userSpaceOnUse" gradientTransform="matrix(239.74,-450.885,143.148,76.114,267.982,238.096)">
			<stop offset="0" stop-color="#0066ff"/>
			<stop offset=".2" stop-color="#1677ff"/>
			<stop offset="1" stop-color="#04a6ff"/>
		</linearGradient>
		<linearGradient id="g2" x2="1" gradientUnits="userSpaceOnUse" gradientTransform="matrix(1433.054,-521.59,542.853,1491.472,-394.942,457.69)">
			<stop offset="0" stop-color="#0066ff"/>
			<stop offset=".2" stop-color="#1677ff"/>
			<stop offset="1" stop-color="#04a6ff"/>
		</linearGradient>
		<linearGradient id="g3" x2="1" gradientUnits="userSpaceOnUse" gradientTransform="matrix(-129.449,-483.119,158.26,-42.405,-327.31,737.658)">
			<stop offset="0" stop-color="#0066ff"/>
			<stop offset=".2" stop-color="#1677ff"/>
			<stop offset="1" stop-color="#04a6ff"/>
		</linearGradient>
	</defs>
	<style>
		.s0 { fill: url(#g1) } 
		.s1 { fill: url(#g2) } 
		.s2 { fill: url(#g3) } 
		.s3 { fill: #ffffff } 
	</style>
	<g id="内容">
		<g id="&lt;Group&gt;">
			<g id="&lt;Group&gt;">
				<path id="&lt;Compound Path&gt;" class="s0" d="m679.6 442.6c-9.6-2.2-19.2-9-23.2-22-3.9-11.3-2.8-23.7-0.5-35.5 10.7-60.4 20.9-121.3 35-181.1 11.2-49.1 27.6-97 56.9-138.2 21.5-29.3 51.9-54.2 88-63.2 61-15.2 86.4 44 64.9 94.8-18 42.3-60.9 64.3-92.5 94.7-58.1 55.9-76.2 150.7-93.1 225.7-4.5 19.2-20.9 28.2-35.5 24.8z"/>
				<g id="&lt;Group&gt;">
					<path id="&lt;Compound Path&gt;" class="s1" d="m567.3 365.3c-21.4-0.5-41.7-3.4-61.5-14.6-18.6-10.8-42.9-29.4-66-21.5-24.8 8.5-34.4 43.5-54.1 60.4-27.7 24.2-61 37.2-92 55.8-26.5 15.8-52.5 33.3-76.7 53.1-48 38.9-89.7 85.7-123 137.6-65.4 101-98.2 221.1-93.1 341.3 13 334.5 302.4 592.3 640.3 563.6 301.3-25.4 537.1-279.8 539.3-581.6 0.6-102.2-25.4-203.7-75.6-292.8-48.5-86.3-118.4-159.7-202.5-212.1-85.7-53.6-185-84.1-286.6-88.6-16.3-0.6-32.1 0-48.5-0.6z"/>
				</g>
				<path id="&lt;Compound Path&gt;" class="s2" d="m161.7 145.3c5.6-16.3 14.1-31 26.5-41.2 24.8-20.3 60.9-16.3 81.2 7.9 48 57.6 11.9 145.6 9.6 212.2-1.7 55.8 17.5 113.3 40.1 163 3.9 9.6 11.3 19.2 13 30.4 2.2 18.1-5.7 33.3-20.3 40.1-23.7 11.8-39-13-49.1-31-23.2-41.8-42.3-86.3-61-129.8-19.1-45.1-34.9-91.4-42.8-139.9q-2.3-13-3.4-25.9-1.7-12.4-1.7-24.3c-1.1-19.2 1.1-41.7 7.9-61.5z"/>
				<path id="&lt;Compound Path&gt;" fill-rule="evenodd" class="s3" d="m813.8 1275.8c-196.8-0.5-371.7-179.4-390.3-398.2-18.7-218.9 125.2-396.6 321.5-397.2 197.5 0 373.5 178.3 392.7 398.3 19.1 220.6-126.4 398.3-323.9 397.1zm300.2-408.4c-8.5-92.5-49.1-179.4-114-245.4-64.9-65.4-146.7-101.5-229.6-101.5q-4.5 0-9 0.5c-75.6 2.3-145 34.4-195.8 91.4-60.3 67.1-89.1 163.6-79 264 9.6 94.2 51.4 182.2 118.5 247.1 66.6 64.9 149.5 99.3 234.1 96.5 75.1-2.3 144.4-34.4 195.2-91.4 59.8-67.1 89.2-161.9 79.6-261.2z"/>
			</g>
		</g>
	</g>
</svg>