<svg xmlns="http://www.w3.org/2000/svg" viewBox="0 0 48 48"><path fill="#0078d4" d="M7.782,40.218c3.71,3.71,9.725,3.71,13.435,0c1.733-1.733,5.267-5.267,7-7	c3.71-3.71,3.71-9.725,0-13.435c-3.71-3.71-9.725-3.71-13.435,0c-1.733,1.733-5.267,5.267-7,7	C4.073,30.492,4.073,36.508,7.782,40.218z M11.318,30.318c1.02-1.02,6.237-6.237,7-7c1.757-1.757,4.607-1.757,6.364,0	c1.757,1.757,1.757,4.607,0,6.364c-0.763,0.763-5.98,5.98-7,7c-1.757,1.757-4.607,1.757-6.364,0	C9.561,34.925,9.561,32.075,11.318,30.318z"/><path d="M23.609,22.509c0,0-0.609-1.509,0.77-3.131l1.369-1.37c-3.165-1.583-7.022-1.285-9.926,0.888	C15,22,16.197,25.439,16.197,25.439c1.04-1.04,1.872-1.872,2.121-2.121C19.758,21.879,21.851,21.613,23.609,22.509z" opacity=".05"/><path d="M22.827,22.193c-0.082-0.664-0.178-2.024,1.022-3.345c0.07-0.07,0.92-0.94,1.143-1.163	c-2.642-1.109-5.689-0.896-8.192,0.57c-0.849,2.578-0.317,5.522,0,6.582c0.743-0.743,1.324-1.324,1.519-1.519	C19.548,22.088,21.254,21.714,22.827,22.193z" opacity=".07"/><path fill="#1b9de2" d="M40.218,7.782c-3.71-3.71-9.725-3.71-13.435,0c-1.733,1.733-5.267,5.267-7,7	c-3.71,3.71-3.71,9.725,0,13.435c3.71,3.71,9.725,3.71,13.435,0c1.733-1.733,5.267-5.267,7-7	C43.927,17.508,43.927,11.492,40.218,7.782z M36.682,17.682c-1.02,1.02-6.237,6.237-7,7c-1.757,1.757-4.607,1.757-6.364,0	c-1.757-1.757-1.757-4.607,0-6.364c0.763-0.763,5.98-5.98,7-7c1.757-1.757,4.607-1.757,6.364,0	C38.439,13.075,38.439,15.925,36.682,17.682z"/><path d="M24.386,25.476c0,0,0.614,1.524-0.765,3.146l-1.369,1.37c3.165,1.583,7.022,1.285,9.926-0.888	C33,26,31.803,22.561,31.803,22.561c-1.04,1.04-1.872,1.872-2.121,2.121C28.242,26.121,26.09,26.395,24.386,25.476z" opacity=".05"/><path d="M25.188,25.806c0.082,0.664,0.163,2.025-1.037,3.346c-0.07,0.07-0.92,0.92-1.143,1.143	c2.642,1.109,5.718,0.897,8.196-0.628c0.849-2.578,0.314-5.445-0.004-6.504c-0.743,0.743-1.324,1.324-1.519,1.519	C28.452,25.912,26.673,26.271,25.188,25.806z" opacity=".07"/><path fill="#0078d4" d="M24.682,23.318c1.757,1.757,1.757,4.607,0,6.364c-0.763,0.763-5.98,5.98-7,7l3.536,3.536	c1.733-1.733,5.267-5.267,7-7c3.71-3.71,3.71-9.725,0-13.435L24.682,23.318z"/></svg>