<svg xmlns="http://www.w3.org/2000/svg" width="512" height="512" viewBox="0 0 512 512"><path fill="#000000" d="M462.595 399.003c-7.743 17.888-16.908 34.353-27.527 49.492c-14.474 20.637-26.326 34.923-35.459 42.855c-14.159 13.021-29.329 19.69-45.573 20.068c-11.662 0-25.726-3.318-42.096-10.05c-16.425-6.7-31.519-10.019-45.32-10.019c-14.475 0-29.999 3.318-46.603 10.019c-16.63 6.731-30.027 10.24-40.27 10.587c-15.578.664-31.105-6.195-46.603-20.606c-9.892-8.628-22.265-23.418-37.088-44.372c-15.903-22.375-28.977-48.322-39.221-77.904c-10.969-31.952-16.469-62.892-16.469-92.846c0-34.313 7.414-63.906 22.265-88.706c11.672-19.92 27.199-35.633 46.631-47.169s40.431-17.414 63.043-17.79c12.373 0 28.599 3.827 48.762 11.349c20.107 7.547 33.017 11.375 38.677 11.375c4.232 0 18.574-4.475 42.887-13.397c22.992-8.274 42.397-11.7 58.293-10.35c43.076 3.477 75.438 20.457 96.961 51.05c-38.525 23.343-57.582 56.037-57.203 97.979c.348 32.669 12.199 59.855 35.491 81.44c10.555 10.019 22.344 17.762 35.459 23.26c-2.844 8.248-5.846 16.149-9.038 23.735zM363.801 10.242c0 25.606-9.355 49.514-28.001 71.643c-22.502 26.307-49.719 41.508-79.234 39.11a80 80 0 0 1-.594-9.703c0-24.582 10.701-50.889 29.704-72.398c9.488-10.89 21.554-19.946 36.187-27.17C336.464 4.608 350.275.672 363.264-.001c.379 3.423.538 6.846.538 10.242z"/></svg>