<svg xmlns="http://www.w3.org/2000/svg" width="128" height="128" viewBox="0 0 128 128"><path d="M25.1 91.1c0 3.2-.4 5.8-1.1 7.8s-1.7 3.5-3.1 4.6c-1.3 1.1-2.9 1.8-4.8 2.2s-3.9.6-6.2.6c-3.1 0-5.4-.5-7.1-1.4c-1.6-1-2.4-2.1-2.4-3.5c0-1.1.5-2.1 1.4-2.8c.9-.8 2.1-1.2 3.7-1.2c1.2 0 2.1.3 2.8.9s1.3 1.2 1.7 1.8c.5.7.9 1.1 1.3 1.3s.7.3 1 .3c.6 0 1.1-.4 1.4-1.1s.5-2.1.5-4.2V57l11-3v37.1M40.7 55v25.4c0 .7.1 1.4.4 2s.6 1.2 1.1 1.6s1 .8 1.7 1.1c.6.3 1.3.4 2.1.4s1.8-.5 2.9-1.3c1.8-1.3 2.9-2.2 2.9-3.2V55h11v36.1h-11v-3.4c-1.4 1.2-3 2.2-4.6 2.9s-3.2 1.1-4.8 1.1c-1.8 0-3.5-.3-5-.9s-2.9-1.4-4-2.4q-1.8-1.5-2.7-3.6c-.7-1.4-1-2.9-1-4.4V55zm37.5 36.1H67.3V40.5l10.9-3zM82.7 57l11-3v37.1h-11zm33.9 15.5c-1.1.4-2.1 1-3.2 1.6s-2 1.2-2.9 1.9s-1.6 1.5-2.1 2.3s-.8 1.6-.8 2.5c0 .7.1 1.3.3 1.9s.4 1.2.7 1.6s.7.8 1.1 1.1s.8.4 1.2.4c.9 0 1.8-.3 2.7-.8s1.9-1.2 3.1-2.1V72.5m10.9 18.6h-11v-2.9c-.6.5-1.2 1-1.8 1.4s-1.2.8-1.9 1.1s-1.5.6-2.4.7c-.9.2-2 .3-3.2.3c-1.7 0-3.2-.2-4.5-.7s-2.5-1.1-3.4-2q-1.35-1.2-2.1-3c-.5-1.1-.7-2.4-.7-3.7c0-1.4.3-2.6.8-3.7s1.2-2.1 2.2-3c.9-.9 2-1.7 3.2-2.4s2.5-1.4 3.9-1.9c1.4-.6 2.8-1.1 4.3-1.6s3-1 4.5-1.4l1.2-.3v-3.6c0-2.3-.4-3.9-1.3-4.9s-2.1-1.4-3.5-1.4q-2.55 0-3.6 1.2c-.7.8-1 1.8-1 3c0 .7-.1 1.3-.2 2c-.1.6-.4 1.2-.7 1.7q-.6.75-1.5 1.2c-.7.3-1.5.4-2.5.4c-1.5 0-2.8-.4-3.7-1.3c-1-.9-1.4-2-1.4-3.3c0-1.2.4-2.4 1.3-3.5c.8-1.1 2-2 3.4-2.8s3.1-1.4 5-1.8s3.9-.7 6-.7c2.6 0 4.8.2 6.7.7s3.4 1.1 4.6 2s2.1 1.9 2.7 3.1s.9 2.6.9 4.1v27"/><path fill="#eee" d="M9.9 106.6c-3.1 0-5.6-.5-7.3-1.5c-1.8-1-2.7-2.3-2.7-3.8c0-1.2.5-2.3 1.5-3.2c1-.8 2.3-1.3 3.9-1.3c1.3 0 2.3.4 3 1s1.3 1.3 1.8 1.9c.6.8 1 1.1 1.2 1.2c.3.2.5.3.7.3c.3 0 .7-.1 1-.8s.4-2 .4-4V56.7l11.8-3.3v37.7c0 3.2-.4 5.9-1.1 7.9s-1.8 3.6-3.2 4.8c-1.4 1.1-3 1.9-5 2.3c-1.6.3-3.7.5-6 .5m-4.4-8.9c-1.4 0-2.6.4-3.4 1.1s-1.2 1.5-1.2 2.5c0 1.2.7 2.2 2.2 3.1c1.6.9 3.9 1.4 6.8 1.4c2.2 0 4.3-.2 6.1-.5c1.8-.4 3.3-1.1 4.6-2.1s2.3-2.5 2.9-4.4c.7-1.9 1.1-4.5 1.1-7.6V54.5l-10.2 2.8v39.2c0 2.2-.2 3.6-.5 4.4c-.5 1.1-1.2 1.3-1.8 1.3c-.4 0-.8-.1-1.2-.4s-.9-.7-1.4-1.4c-.4-.6-1-1.2-1.7-1.8c-.5-.6-1.3-.9-2.3-.9m101.8-5.5c-1.7 0-3.3-.3-4.6-.7c-1.4-.5-2.6-1.2-3.5-2.1c-1-.9-1.7-1.9-2.2-3.1s-.8-2.5-.8-3.9s.3-2.8.8-3.9c.5-1.2 1.3-2.2 2.2-3.1s2-1.7 3.3-2.5c1.2-.7 2.6-1.4 4-2s2.9-1.1 4.4-1.6s3-1 4.5-1.4l.9-.2v-3.2c0-2.2-.4-3.7-1.2-4.6s-1.9-1.3-3.2-1.3c-1.6 0-2.7.4-3.3 1.1c-.6.8-.9 1.7-.9 2.8c0 .7-.1 1.4-.2 2.1c-.2.7-.4 1.3-.8 1.8s-1 1-1.7 1.3s-1.6.5-2.6.5c-1.6 0-3-.5-4-1.4c-1-1-1.6-2.2-1.6-3.7c0-1.3.5-2.6 1.4-3.7s2.1-2.1 3.6-2.9s3.2-1.4 5.1-1.9s4-.7 6.1-.7c2.6 0 4.9.2 6.8.7q2.85.75 4.8 2.1c1.3.9 2.2 2 2.8 3.3s.9 2.7.9 4.3v27.5h-11.8v-2.4c-.4.3-.7.6-1.1.9c-.6.4-1.3.8-2 1.2c-.7.3-1.6.6-2.5.8c-1.3-.2-2.4-.1-3.6-.1m4.4-34.6c1.6 0 2.9.5 3.8 1.6c1 1 1.4 2.8 1.4 5.2v3.9l-1.5.4c-1.4.4-2.9.9-4.4 1.4s-3 1-4.3 1.6c-1.4.6-2.7 1.2-3.9 1.9s-2.2 1.5-3.1 2.3c-.9.9-1.6 1.8-2.1 2.9s-.8 2.3-.8 3.6s.2 2.5.7 3.6s1.2 2 2 2.8c.9.8 2 1.4 3.2 1.9c1.3.5 2.7.7 4.3.7c1.2 0 2.2-.1 3.1-.3s1.7-.4 2.3-.7c.7-.3 1.3-.7 1.9-1.1s1.2-.9 1.8-1.4l.7-.6v3.4h10.1V64.1c0-1.4-.3-2.7-.8-3.9c-.5-1.1-1.4-2.1-2.6-3c-1.2-.8-2.7-1.5-4.5-1.9c-1.8-.5-4.1-.7-6.6-.7c-2.1 0-4.1.2-5.9.7c-1.8.4-3.5 1-4.9 1.8q-2.1 1.05-3.3 2.7c-.8 1-1.2 2.1-1.2 3.2c0 1.2.4 2.2 1.3 3s2 1.2 3.5 1.2c.9 0 1.7-.1 2.3-.4s1-.6 1.3-1s.5-.9.7-1.5c.1-.6.2-1.2.2-1.9c0-1.3.4-2.4 1.1-3.3q1.5-1.5 4.2-1.5M42.5 92.2c-1.8 0-3.6-.3-5.1-.9c-1.6-.6-3-1.5-4.2-2.5c-1.2-1.1-2.1-2.3-2.8-3.7s-1-3-1-4.6V54.6h11.8v25.8c0 .6.1 1.3.4 1.8c.2.6.6 1.1 1 1.5s1 .7 1.6 1c.6.2 1.2.4 1.9.4s1.5-.4 2.7-1.2c1.6-1.1 2.7-2 2.7-2.8V54.6h11.8v36.9H51.5v-2.9c-1.3 1-2.6 1.8-4 2.4c-1.7.8-3.4 1.2-5 1.2M30.2 55.5v25q0 2.25.9 4.2c.6 1.3 1.5 2.5 2.6 3.5s2.4 1.8 3.9 2.3s3.1.9 4.8.9c1.5 0 3-.4 4.6-1.1s3.1-1.7 4.5-2.9l.7-.6v3.9h10.1V55.5h-10v25.6c0 1.3-1.2 2.2-3.1 3.5c-1.3 1-2.3 1.4-3.2 1.4c-.8 0-1.5-.1-2.2-.4q-1.05-.45-1.8-1.2c-.75-.75-.9-1.1-1.2-1.8s-.4-1.4-.4-2.2v-25H30.2zm63.9 36H82.3V56.7l11.8-3.3zm-10.9-.8h10.1V54.5l-10.1 2.8zm-4.6.8H66.9V40.2L78.6 37zm-10.9-.8h10.1V38.1l-10.1 2.8zm43.1-4.5c-.5 0-1-.2-1.5-.5q-.6-.45-1.2-1.2c-.3-.5-.6-1.1-.8-1.7q-.3-1.05-.3-2.1c0-.9.3-1.9.9-2.7s1.3-1.6 2.2-2.4c.9-.7 1.9-1.4 3-2s2.2-1.1 3.2-1.6l.6-.3V83l-.2.1c-1.1.8-2.2 1.5-3.1 2.1c-.8.7-1.8 1-2.8 1m5.4-13.1c-.9.4-1.7.8-2.6 1.3c-1 .6-2 1.2-2.9 1.9c-.8.7-1.5 1.4-2.1 2.2c-.5.7-.7 1.5-.7 2.3c0 .6.1 1.2.2 1.8c.2.6.4 1.1.7 1.5s.6.7 1 1c.3.2.6.3 1 .3c.8 0 1.7-.3 2.5-.8c.9-.5 1.8-1.2 2.8-1.9v-9.6z"/><path fill="#cb3c33" d="M96.2 44.7c0 4.1-3.3 7.4-7.4 7.4s-7.4-3.3-7.4-7.4s3.3-7.4 7.4-7.4s7.4 3.3 7.4 7.4"/><path fill="#eee" d="M88.8 52.6c-4.3 0-7.9-3.5-7.9-7.9s3.5-7.9 7.9-7.9c4.3 0 7.9 3.5 7.9 7.9s-3.6 7.9-7.9 7.9m0-14.9c-3.9 0-7 3.1-7 7s3.1 7 7 7s7-3.1 7-7s-3.2-7-7-7"/><path fill="#4063d8" d="M27.2 44.7c0 4.1-3.3 7.4-7.4 7.4s-7.4-3.3-7.4-7.4s3.3-7.4 7.4-7.4s7.4 3.3 7.4 7.4"/><path fill="#eee" d="M19.8 52.6c-4.3 0-7.9-3.5-7.9-7.9s3.5-7.9 7.9-7.9s7.9 3.5 7.9 7.9s-3.6 7.9-7.9 7.9m0-14.9c-3.9 0-7 3.1-7 7s3.1 7 7 7s7-3.1 7-7s-3.1-7-7-7"/><path fill="#9558b2" d="M114.1 44.7c0 4.1-3.3 7.4-7.4 7.4s-7.4-3.3-7.4-7.4s3.3-7.4 7.4-7.4c4 0 7.4 3.3 7.4 7.4"/><path fill="#eee" d="M106.6 52.6c-4.3 0-7.9-3.5-7.9-7.9s3.5-7.9 7.9-7.9c4.3 0 7.9 3.5 7.9 7.9s-3.5 7.9-7.9 7.9m0-14.9c-3.9 0-7 3.1-7 7s3.1 7 7 7s7-3.1 7-7s-3.1-7-7-7"/><path fill="#389826" d="M105.1 29.2c0 4.1-3.3 7.4-7.4 7.4s-7.4-3.3-7.4-7.4s3.3-7.4 7.4-7.4s7.4 3.3 7.4 7.4"/><path fill="#eee" d="M97.7 37.1c-4.3 0-7.9-3.5-7.9-7.9s3.5-7.9 7.9-7.9c4.3 0 7.9 3.5 7.9 7.9s-3.6 7.9-7.9 7.9m0-14.9c-3.9 0-7 3.1-7 7s3.1 7 7 7s7-3.1 7-7s-3.1-7-7-7"/></svg>