<svg xmlns="http://www.w3.org/2000/svg" width="24" height="24" viewBox="0 0 24 24"><path fill="#06C160" fill-rule="evenodd" d="M21.502 19.228C23.026 18.123 24 16.49 24 14.674c0-3.326-3.237-6.023-7.229-6.023s-7.229 2.697-7.229 6.023c0 3.327 3.237 6.024 7.229 6.024c.825 0 1.621-.117 2.36-.33l.212-.032c.139 0 .265.043.384.111l1.583.914l.139.045a.24.24 0 0 0 .241-.241l-.039-.176l-.326-1.215l-.025-.154a.48.48 0 0 1 .202-.392M8.675 2C3.884 2 0 5.236 0 9.229c0 2.178 1.168 4.139 2.997 5.464a.57.57 0 0 1 .243.471l-.03.184l-.391 1.458l-.047.211c0 .16.13.29.289.29l.168-.054l1.899-1.097a.9.9 0 0 1 .46-.133l.255.038c.886.255 1.842.397 2.832.397l.476-.012a5.6 5.6 0 0 1-.291-1.771c0-3.641 3.542-6.593 7.911-6.593l.471.012C16.589 4.641 13.002 2 8.675 2m5.686 11.711a.964.964 0 1 1 .001-1.927a.964.964 0 0 1-.001 1.927m4.82 0a.964.964 0 1 1 0-1.928a.964.964 0 0 1 0 1.928M5.783 8.072a1.156 1.156 0 1 1 0-2.312a1.156 1.156 0 0 1 0 2.312m5.783 0a1.156 1.156 0 1 1 0-2.312a1.156 1.156 0 0 1 0 2.312" clip-rule="evenodd"/></svg>