<?xml version="1.0" encoding="UTF-8"?>
<svg width="1484px" height="1200px" viewBox="0 0 1484 1200" version="1.1" xmlns="http://www.w3.org/2000/svg" xmlns:xlink="http://www.w3.org/1999/xlink">
    <!-- Generator: Sketch 51.2 (57519) - http://www.bohemiancoding.com/sketch -->
    <title>微信LOGO_轮廓@2x</title>
    <desc>Created with Sketch.</desc>
    <defs></defs>
    <g id="Page-1" stroke="none" stroke-width="1" fill="none" fill-rule="evenodd">
        <g id="微信LOGO_轮廓" fill="#06C160" fill-rule="nonzero">
            <path d="M1061,376.745492 C1046.93159,375.675132 1032.68294,375.128245 1018.28199,375.128245 C760.474403,375.128245 551.480062,550.397809 551.480062,766.603773 C551.480062,811.187407 560.366958,854.030335 576.736209,893.954663 C562.583324,894.898539 548.274988,895.379506 533.8327,895.379506 C463.725155,895.379506 418.690611,882.797139 357.35908,862.195315 C341.628964,857.623713 289.621693,883.876817 201.337265,940.954626 C194.832044,944.184916 188.274851,943.588971 181.665688,939.166792 C175.056524,934.744612 173.29647,928.000572 176.385526,918.934671 C200.137255,841.559638 206.88886,798.613438 196.640342,790.096073 C71.2830289,708.173715 0,591.29385 0,447.689753 C0,200.43753 239.005041,0 533.8327,0 C799.872941,0 1020.45957,163.206427 1061,376.745492 Z M357.35908,379.323337 C398.781148,379.323337 432.360369,345.75252 432.360369,304.340817 C432.360369,262.929115 398.781148,229.358297 357.35908,229.358297 C315.937013,229.358297 282.357792,262.929115 282.357792,304.340817 C282.357792,345.75252 315.937013,379.323337 357.35908,379.323337 Z M714.718161,379.323337 C756.140229,379.323337 789.719449,345.75252 789.719449,304.340817 C789.719449,262.929115 756.140229,229.358297 714.718161,229.358297 C673.296093,229.358297 639.716872,262.929115 639.716872,304.340817 C639.716872,345.75252 673.296093,379.323337 714.718161,379.323337 Z" id="Combined-Shape"></path>
            <path d="M1037.5,1160.10584 C978.861744,1160.10584 941.194654,1149.56494 889.896694,1132.30572 C876.739957,1128.47586 833.240848,1150.46944 759.399367,1198.28648 C753.958372,1200.99267 748.473907,1200.49341 742.945974,1196.78872 C737.41804,1193.08403 735.945924,1187.4342 738.529623,1179.83923 C758.395673,1115.01815 764.042746,1079.03989 755.47084,1071.90445 C650.621436,1003.27384 591,905.35752 591,785.052921 C591,577.916912 790.904859,410 1037.5,410 C1284.09514,410 1484,577.916912 1484,785.052921 C1484,992.18893 1284.09514,1160.10584 1037.5,1160.10584 Z M889.896694,727.77883 C924.542293,727.77883 952.628099,699.654815 952.628099,664.962084 C952.628099,630.269354 924.542293,602.145339 889.896694,602.145339 C855.251096,602.145339 827.165289,630.269354 827.165289,664.962084 C827.165289,699.654815 855.251096,727.77883 889.896694,727.77883 Z M1188.79339,727.77883 C1223.43899,727.77883 1251.52479,699.654815 1251.52479,664.962084 C1251.52479,630.269354 1223.43899,602.145339 1188.79339,602.145339 C1154.14779,602.145339 1126.06198,630.269354 1126.06198,664.962084 C1126.06198,699.654815 1154.14779,727.77883 1188.79339,727.77883 Z" id="Combined-Shape-Copy-4" transform="translate(1037.500000, 805.000000) scale(-1, 1) translate(-1037.500000, -805.000000) "></path>
        </g>
    </g>
</svg>